<?xml version="1.0"?>
<svg xmlns="http://www.w3.org/2000/svg" viewBox="0 0 64 64">
    <path d="M 3 10 C 1.3 10 0 11.3 0 13 L 0 45 C 0 46.7 1.3 48 3 48 L 6 48 L 6 51 C 6 52.7 7.3 54 9 54 L 61 54 C 62.7 54 64 52.7 64 51 L 64 19 C 64 17.3 62.7 16 61 16 L 58 16 L 58 13 C 58 11.3 56.7 10 55 10 L 3 10 z M 3 12 L 55 12 C 55.6 12 56 12.4 56 13 L 56 26 L 2 26 L 2 18 L 45 18 C 45.6 18 46 17.6 46 17 C 46 16.4 45.6 16 45 16 L 2 16 L 2 13 C 2 12.4 2.4 12 3 12 z M 49 16 C 48.4 16 48 16.4 48 17 C 48 17.6 48.4 18 49 18 L 53 18 C 53.6 18 54 17.6 54 17 C 54 16.4 53.6 16 53 16 L 49 16 z M 58 18 L 61 18 C 61.6 18 62 18.4 62 19 L 62 51 C 62 51.6 61.6 52 61 52 L 9 52 C 8.4 52 8 51.6 8 51 L 8 48 L 55 48 C 56.7 48 58 46.7 58 45 L 58 18 z M 6 20 C 5.4 20 5 20.4 5 21 L 5 23 C 5 23.6 5.4 24 6 24 C 6.6 24 7 23.6 7 23 L 7 21 C 7 20.5 6.6 20 6 20 z M 11 20 C 10.4 20 10 20.4 10 21 L 10 23 C 10 23.6 10.4 24 11 24 C 11.6 24 12 23.6 12 23 L 12 21 C 12 20.5 11.6 20 11 20 z M 16 20 C 15.4 20 15 20.4 15 21 L 15 23 C 15 23.6 15.4 24 16 24 C 16.6 24 17 23.6 17 23 L 17 21 C 17 20.5 16.6 20 16 20 z M 21 20 C 20.4 20 20 20.4 20 21 L 20 23 C 20 23.6 20.4 24 21 24 C 21.6 24 22 23.6 22 23 L 22 21 C 22 20.5 21.6 20 21 20 z M 26 20 C 25.4 20 25 20.4 25 21 L 25 23 C 25 23.6 25.4 24 26 24 C 26.6 24 27 23.6 27 23 L 27 21 C 27 20.4 26.6 20 26 20 z M 32 20 C 31.4 20 31 20.4 31 21 L 31 23 C 31 23.6 31.4 24 32 24 C 32.6 24 33 23.6 33 23 L 33 21 C 33 20.4 32.6 20 32 20 z M 37 20 C 36.4 20 36 20.4 36 21 L 36 23 C 36 23.6 36.4 24 37 24 C 37.6 24 38 23.6 38 23 L 38 21 C 38 20.4 37.6 20 37 20 z M 42 20 C 41.4 20 41 20.4 41 21 L 41 23 C 41 23.6 41.4 24 42 24 C 42.6 24 43 23.6 43 23 L 43 21 C 43 20.4 42.6 20 42 20 z M 47 20 C 46.4 20 46 20.4 46 21 L 46 23 C 46 23.6 46.4 24 47 24 C 47.6 24 48 23.6 48 23 L 48 21 C 48 20.4 47.6 20 47 20 z M 52 20 C 51.4 20 51 20.4 51 21 L 51 23 C 51 23.6 51.4 24 52 24 C 52.6 24 53 23.6 53 23 L 53 21 C 53 20.4 52.6 20 52 20 z M 2 28 L 56 28 L 56 45 C 56 45.6 55.6 46 55 46 L 3 46 C 2.4 46 2 45.6 2 45 L 2 28 z M 42 32 C 39.8 32 38 33.8 38 36 C 38 38.2 39.8 40 42 40 C 42.9 40 43.8 39.699609 44.5 39.099609 C 45.2 39.699609 46.1 40 47 40 C 49.2 40 51 38.2 51 36 C 51 33.8 49.2 32 47 32 C 46.1 32 45.2 32.300391 44.5 32.900391 C 43.8 32.300391 42.9 32 42 32 z M 7 33 C 6.4 33 6 33.4 6 34 C 6 34.6 6.4 35 7 35 L 21 35 C 21.6 35 22 34.6 22 34 C 22 33.4 21.6 33 21 33 L 7 33 z M 27 33 C 26.4 33 26 33.4 26 34 C 26 34.6 26.4 35 27 35 L 31 35 C 31.6 35 32 34.6 32 34 C 32 33.4 31.6 33 31 33 L 27 33 z M 41.800781 33.900391 C 42.500781 33.900391 43.199609 34.300391 43.599609 34.900391 C 43.999609 35.500391 45.000391 35.500391 45.400391 34.900391 C 45.800391 34.300391 46.499219 33.900391 47.199219 33.900391 C 48.399219 33.900391 49.300781 34.9 49.300781 36 C 49.300781 37.1 48.399219 38.099609 47.199219 38.099609 C 46.499219 38.099609 45.800391 37.699609 45.400391 37.099609 C 45.200391 36.799609 44.9 36.599609 44.5 36.599609 C 44.1 36.599609 43.799609 36.799609 43.599609 37.099609 C 43.199609 37.699609 42.500781 38.099609 41.800781 38.099609 C 40.600781 38.099609 39.699219 37.1 39.699219 36 C 39.699219 34.9 40.700781 33.900391 41.800781 33.900391 z M 7 37 C 6.4 37 6 37.4 6 38 C 6 38.6 6.4 39 7 39 L 18 39 C 18.6 39 19 38.6 19 38 C 19 37.4 18.6 37 18 37 L 7 37 z"/>
</svg>
