<?xml version="1.0"?>
<svg xmlns="http://www.w3.org/2000/svg" viewBox="0 0 64 64">
    <path d="M 9 6 C 7.346 6 6 7.346 6 9 L 6 53 C 6 54.654 7.346 56 9 56 L 39.003906 56 C 40.966906 60.693 45.603 64 51 64 C 58.168 64 64 58.168 64 51 C 64 46.41 61.602 42.3765 58 40.0625 L 58 9 C 58 7.346 56.654 6 55 6 L 9 6 z M 9 8 L 55 8 C 55.552 8 56 8.449 56 9 L 56 39.003906 C 54.46 38.359906 52.771 38 51 38 C 43.832 38 38 43.832 38 51 C 38 52.034 38.134281 53.035 38.363281 54 L 9 54 C 8.448 54 8 53.551 8 53 L 8 9 C 8 8.449 8.448 8 9 8 z M 12 10 C 11.447 10 11 10.448 11 11 L 11 13 C 11 13.552 11.447 14 12 14 C 12.553 14 13 13.552 13 13 L 13 11 C 13 10.448 12.553 10 12 10 z M 17 10 C 16.447 10 16 10.448 16 11 L 16 13 C 16 13.552 16.447 14 17 14 C 17.553 14 18 13.552 18 13 L 18 11 C 18 10.448 17.553 10 17 10 z M 22 10 C 21.447 10 21 10.448 21 11 L 21 13 C 21 13.552 21.447 14 22 14 C 22.553 14 23 13.552 23 13 L 23 11 C 23 10.448 22.553 10 22 10 z M 27 10 C 26.447 10 26 10.448 26 11 L 26 13 C 26 13.552 26.447 14 27 14 C 27.553 14 28 13.552 28 13 L 28 11 C 28 10.448 27.553 10 27 10 z M 32 10 C 31.447 10 31 10.448 31 11 L 31 13 C 31 13.552 31.447 14 32 14 C 32.553 14 33 13.552 33 13 L 33 11 C 33 10.448 32.553 10 32 10 z M 37 10 C 36.447 10 36 10.448 36 11 L 36 13 C 36 13.552 36.447 14 37 14 C 37.553 14 38 13.552 38 13 L 38 11 C 38 10.448 37.553 10 37 10 z M 42 10 C 41.447 10 41 10.448 41 11 L 41 13 C 41 13.552 41.447 14 42 14 C 42.553 14 43 13.552 43 13 L 43 11 C 43 10.448 42.553 10 42 10 z M 47 10 C 46.447 10 46 10.448 46 11 L 46 13 C 46 13.552 46.447 14 47 14 C 47.553 14 48 13.552 48 13 L 48 11 C 48 10.448 47.553 10 47 10 z M 52 10 C 51.447 10 51 10.448 51 11 L 51 13 C 51 13.552 51.447 14 52 14 C 52.553 14 53 13.552 53 13 L 53 11 C 53 10.448 52.553 10 52 10 z M 17 24 C 16.447 24 16 24.448 16 25 C 16 25.552 16.447 26 17 26 L 35 26 C 35.553 26 36 25.552 36 25 C 36 24.448 35.553 24 35 24 L 17 24 z M 39 24 C 38.447 24 38 24.448 38 25 C 38 25.552 38.447 26 39 26 L 45 26 C 45.553 26 46 25.552 46 25 C 46 24.448 45.553 24 45 24 L 39 24 z M 17 30 C 16.447 30 16 30.448 16 31 C 16 31.552 16.447 32 17 32 L 39 32 C 39.553 32 40 31.552 40 31 C 40 30.448 39.553 30 39 30 L 17 30 z M 17 36 C 16.447 36 16 36.448 16 37 C 16 37.552 16.447 38 17 38 L 43 38 C 43.553 38 44 37.552 44 37 C 44 36.448 43.553 36 43 36 L 17 36 z M 51 40 C 57.065 40 62 44.935 62 51 C 62 57.065 57.065 62 51 62 C 44.935 62 40 57.065 40 51 C 40 44.935 44.935 40 51 40 z M 51 44 C 50.447 44 50 44.448 50 45 L 50 50 L 45 50 C 44.447 50 44 50.448 44 51 C 44 51.552 44.447 52 45 52 L 50 52 L 50 57 C 50 57.552 50.447 58 51 58 C 51.553 58 52 57.552 52 57 L 52 52 L 57 52 C 57.553 52 58 51.552 58 51 C 58 50.448 57.553 50 57 50 L 52 50 L 52 45 C 52 44.448 51.553 44 51 44 z"/>
</svg>
