<?xml version="1.0"?>
<svg xmlns="http://www.w3.org/2000/svg" viewBox="0 0 80 80">
    <path style="line-height:normal;text-indent:0;text-align:start;text-decoration-line:none;text-decoration-style:solid;text-decoration-color:#000;text-transform:none;block-progression:tb;isolation:auto;mix-blend-mode:normal" d="M 10 10 L 10 64 L 21 64 L 21 62 L 12 62 L 12 12 L 68 12 L 68 62 L 59 62 L 59 64 L 70 64 L 70 10 L 10 10 z M 17 17 C 15.906937 17 15 17.906937 15 19 L 15 21 C 15 22.093063 15.906937 23 17 23 L 20 23 C 21.093063 23 22 22.093063 22 21 L 22 19 C 22 17.906937 21.093063 17 20 17 L 17 17 z M 25 17 L 25 18 L 25 39 L 55 39 L 55 17 L 25 17 z M 60 17 C 58.906937 17 58 17.906937 58 19 L 58 21 C 58 22.093063 58.906937 23 60 23 L 63 23 C 64.093063 23 65 22.093063 65 21 L 65 19 C 65 17.906937 64.093063 17 63 17 L 60 17 z M 17 19 L 20 19 L 20 21 L 17 21 L 17 19 z M 27 19 L 53 19 L 53 37 L 27 37 L 27 19 z M 60 19 L 63 19 L 63 21 L 60 21 L 60 19 z M 17 25 C 15.906937 25 15 25.906937 15 27 L 15 29 C 15 30.093063 15.906937 31 17 31 L 20 31 C 21.093063 31 22 30.093063 22 29 L 22 27 C 22 25.906937 21.093063 25 20 25 L 17 25 z M 60 25 C 58.906937 25 58 25.906937 58 27 L 58 29 C 58 30.093063 58.906937 31 60 31 L 63 31 C 64.093063 31 65 30.093063 65 29 L 65 27 C 65 25.906937 64.093063 25 63 25 L 60 25 z M 17 27 L 20 27 L 20 29 L 17 29 L 17 27 z M 60 27 L 63 27 L 63 29 L 60 29 L 60 27 z M 17 33 C 15.906937 33 15 33.906937 15 35 L 15 37 C 15 38.093063 15.906937 39 17 39 L 20 39 C 21.093063 39 22 38.093063 22 37 L 22 35 C 22 33.906937 21.093063 33 20 33 L 17 33 z M 30 33 A 1 1 0 0 0 29 34 A 1 1 0 0 0 30 35 A 1 1 0 0 0 31 34 A 1 1 0 0 0 30 33 z M 34 33 A 1 1 0 0 0 33 34 A 1 1 0 0 0 34 35 A 1 1 0 0 0 35 34 A 1 1 0 0 0 34 33 z M 38 33 A 1 1 0 0 0 37 34 A 1 1 0 0 0 38 35 A 1 1 0 0 0 39 34 A 1 1 0 0 0 38 33 z M 42 33 A 1 1 0 0 0 41 34 A 1 1 0 0 0 42 35 A 1 1 0 0 0 43 34 A 1 1 0 0 0 42 33 z M 46 33 A 1 1 0 0 0 45 34 A 1 1 0 0 0 46 35 A 1 1 0 0 0 47 34 A 1 1 0 0 0 46 33 z M 50 33 A 1 1 0 0 0 49 34 A 1 1 0 0 0 50 35 A 1 1 0 0 0 51 34 A 1 1 0 0 0 50 33 z M 60 33 C 58.906937 33 58 33.906937 58 35 L 58 37 C 58 38.093063 58.906937 39 60 39 L 63 39 C 64.093063 39 65 38.093063 65 37 L 65 35 C 65 33.906937 64.093063 33 63 33 L 60 33 z M 17 35 L 20 35 L 20 37 L 17 37 L 17 35 z M 60 35 L 63 35 L 63 37 L 60 37 L 60 35 z M 21.5 46 C 20.119 46 19 47.119 19 48.5 C 19 49.881 20.119 51 21.5 51 L 23 51 L 23 77 L 57 77 L 57 51 L 58.5 51 C 59.881 51 61 49.881 61 48.5 C 61 47.119 59.881 46 58.5 46 L 21.5 46 z M 25 48 L 32.068359 48 C 32.563723 51.936614 35.932692 55 40 55 C 44.067308 55 47.436277 51.936614 47.931641 48 L 55 48 L 55 51 L 55 75 L 25 75 L 25 48 z M 34.089844 48 L 45.910156 48 C 45.436203 50.844644 42.983865 53 40 53 C 37.016135 53 34.563797 50.844644 34.089844 48 z M 28 50 A 1 1 0 0 0 27 51 A 1 1 0 0 0 28 52 A 1 1 0 0 0 29 51 A 1 1 0 0 0 28 50 z M 52 50 A 1 1 0 0 0 51 51 A 1 1 0 0 0 52 52 A 1 1 0 0 0 53 51 A 1 1 0 0 0 52 50 z M 28 54 A 1 1 0 0 0 27 55 A 1 1 0 0 0 28 56 A 1 1 0 0 0 29 55 A 1 1 0 0 0 28 54 z M 52 54 A 1 1 0 0 0 51 55 A 1 1 0 0 0 52 56 A 1 1 0 0 0 53 55 A 1 1 0 0 0 52 54 z M 28 58 A 1 1 0 0 0 27 59 A 1 1 0 0 0 28 60 A 1 1 0 0 0 29 59 A 1 1 0 0 0 28 58 z M 52 58 A 1 1 0 0 0 51 59 A 1 1 0 0 0 52 60 A 1 1 0 0 0 53 59 A 1 1 0 0 0 52 58 z M 40 61.5 C 37.802706 61.5 36 63.302706 36 65.5 C 36 67.697294 37.802706 69.5 40 69.5 C 42.197294 69.5 44 67.697294 44 65.5 C 44 63.302706 42.197294 61.5 40 61.5 z M 28 62 A 1 1 0 0 0 27 63 A 1 1 0 0 0 28 64 A 1 1 0 0 0 29 63 A 1 1 0 0 0 28 62 z M 52 62 A 1 1 0 0 0 51 63 A 1 1 0 0 0 52 64 A 1 1 0 0 0 53 63 A 1 1 0 0 0 52 62 z M 40 63.5 C 41.116414 63.5 42 64.383586 42 65.5 C 42 66.616414 41.116414 67.5 40 67.5 C 38.883586 67.5 38 66.616414 38 65.5 C 38 64.383586 38.883586 63.5 40 63.5 z M 28 66 A 1 1 0 0 0 27 67 A 1 1 0 0 0 28 68 A 1 1 0 0 0 29 67 A 1 1 0 0 0 28 66 z M 52 66 A 1 1 0 0 0 51 67 A 1 1 0 0 0 52 68 A 1 1 0 0 0 53 67 A 1 1 0 0 0 52 66 z M 31 68 A 1 1 0 0 0 30 69 A 1 1 0 0 0 31 70 A 1 1 0 0 0 32 69 A 1 1 0 0 0 31 68 z M 49 68 A 1 1 0 0 0 48 69 A 1 1 0 0 0 49 70 A 1 1 0 0 0 50 69 A 1 1 0 0 0 49 68 z M 33 71 A 1 1 0 0 0 32 72 A 1 1 0 0 0 33 73 A 1 1 0 0 0 34 72 A 1 1 0 0 0 33 71 z M 47 71 A 1 1 0 0 0 46 72 A 1 1 0 0 0 47 73 A 1 1 0 0 0 48 72 A 1 1 0 0 0 47 71 z"/>
</svg>
