<?xml version="1.0"?>
<svg xmlns="http://www.w3.org/2000/svg" viewBox="0 0 80 80">
    <path d="M 30 10 C 18.966513 10 10 18.966513 10 30 C 10 41.033487 18.966513 50 30 50 C 30 61.03385 38.96615 70 50 70 C 61.03385 70 70 61.03385 70 50 C 70 38.96615 61.03385 30 50 30 C 50 18.966513 41.033487 10 30 10 z M 30 12 C 39.952513 12 48 20.047487 48 30 C 48 30.029758 47.994725 30.071088 47.994141 30.101562 C 46.862519 30.214614 45.759786 30.426545 44.691406 30.720703 A 1 1 0 0 0 45 30 A 1 1 0 0 0 44 29 A 1 1 0 0 0 43 30 A 1 1 0 0 0 43.845703 30.988281 C 37.760988 32.960905 32.957671 37.764321 30.986328 43.849609 A 1 1 0 0 0 30 43 A 1 1 0 0 0 29 44 A 1 1 0 0 0 30 45 A 1 1 0 0 0 30.720703 44.691406 C 30.426545 45.759786 30.214614 46.862519 30.101562 47.994141 C 30.071088 47.994725 30.029758 48 30 48 C 20.047487 48 12 39.952513 12 30 C 12 20.047487 20.047487 12 30 12 z M 50 13 A 1 1 0 0 0 49 14 A 1 1 0 0 0 50 15 A 1 1 0 0 0 51 14 A 1 1 0 0 0 50 13 z M 54 13 A 1 1 0 0 0 53 14 A 1 1 0 0 0 54 15 A 1 1 0 0 0 55 14 A 1 1 0 0 0 54 13 z M 58 13 A 1 1 0 0 0 57 14 A 1 1 0 0 0 58 15 A 1 1 0 0 0 59 14 A 1 1 0 0 0 58 13 z M 62 14 A 1 1 0 0 0 61 15 A 1 1 0 0 0 62 16 A 1 1 0 0 0 63 15 A 1 1 0 0 0 62 14 z M 30 15 A 1 1 0 0 0 29 16 A 1 1 0 0 0 30 17 A 1 1 0 0 0 31 16 A 1 1 0 0 0 30 15 z M 35.380859 16.064453 A 1 1 0 0 0 34.433594 16.681641 A 1 1 0 0 0 34.976562 17.988281 A 1 1 0 0 0 36.28125 17.447266 A 1 1 0 0 0 35.740234 16.140625 A 1 1 0 0 0 35.380859 16.064453 z M 24.650391 16.066406 A 1 1 0 0 0 24.259766 16.142578 A 1 1 0 0 0 23.71875 17.447266 A 1 1 0 0 0 25.025391 17.990234 A 1 1 0 0 0 25.566406 16.683594 A 1 1 0 0 0 24.650391 16.066406 z M 65 17 A 1 1 0 0 0 64 18 A 1 1 0 0 0 65 19 A 1 1 0 0 0 66 18 A 1 1 0 0 0 65 17 z M 20.115234 19.099609 A 1 1 0 0 0 19.394531 19.392578 A 1 1 0 0 0 19.394531 20.806641 A 1 1 0 0 0 20.808594 20.806641 A 1 1 0 0 0 20.808594 19.392578 A 1 1 0 0 0 20.115234 19.099609 z M 39.914062 19.101562 A 1 1 0 0 0 39.191406 19.394531 A 1 1 0 0 0 39.191406 20.808594 A 1 1 0 0 0 40.605469 20.808594 A 1 1 0 0 0 40.605469 19.394531 A 1 1 0 0 0 39.914062 19.101562 z M 66 21 A 1 1 0 0 0 65 22 A 1 1 0 0 0 66 23 A 1 1 0 0 0 67 22 A 1 1 0 0 0 66 21 z M 32.011719 22.095703 C 27.997719 22.095703 25.478797 23.881047 24.716797 27.123047 L 22.734375 27.123047 L 22.734375 28.560547 L 24.511719 28.560547 C 24.482719 28.823547 24.482422 29.097859 24.482422 29.380859 C 24.482422 29.663859 24.491719 29.937938 24.511719 30.210938 L 22.734375 30.210938 L 22.734375 31.636719 L 24.716797 31.636719 C 25.478797 34.878719 27.997719 36.675781 32.011719 36.675781 C 32.655719 36.675781 33.290344 36.625172 33.652344 36.576172 L 33.652344 34.556641 C 33.271344 34.615641 32.724719 34.644531 32.011719 34.644531 C 29.472719 34.644531 27.753547 33.589719 27.060547 31.636719 L 32.294922 31.636719 L 32.294922 30.210938 L 26.736328 30.210938 C 26.717328 29.946938 26.697266 29.663859 26.697266 29.380859 C 26.697266 29.097859 26.716328 28.824547 26.736328 28.560547 L 32.294922 28.560547 L 32.294922 27.123047 L 27.050781 27.123047 C 27.753781 25.180047 29.480297 24.126953 32.029297 24.126953 C 32.733297 24.126953 33.251812 24.146844 33.632812 24.214844 L 33.632812 22.212891 C 33.281813 22.154891 32.616719 22.095703 32.011719 22.095703 z M 17.087891 23.640625 A 1 1 0 0 0 16.140625 24.257812 A 1 1 0 0 0 16.683594 25.564453 A 1 1 0 0 0 17.990234 25.023438 A 1 1 0 0 0 17.447266 23.716797 A 1 1 0 0 0 17.087891 23.640625 z M 42.941406 23.640625 A 1 1 0 0 0 42.550781 23.716797 A 1 1 0 0 0 42.009766 25.023438 A 1 1 0 0 0 43.316406 25.564453 A 1 1 0 0 0 43.857422 24.257812 A 1 1 0 0 0 42.941406 23.640625 z M 66 25 A 1 1 0 0 0 65 26 A 1 1 0 0 0 66 27 A 1 1 0 0 0 67 26 A 1 1 0 0 0 66 25 z M 16 29 A 1 1 0 0 0 15 30 A 1 1 0 0 0 16 31 A 1 1 0 0 0 17 30 A 1 1 0 0 0 16 29 z M 66 29 A 1 1 0 0 0 65 30 A 1 1 0 0 0 66 31 A 1 1 0 0 0 67 30 A 1 1 0 0 0 66 29 z M 50 32 C 59.95297 32 68 40.04703 68 50 C 68 59.95297 59.95297 68 50 68 C 40.04703 68 32 59.95297 32 50 C 32 40.04703 40.04703 32 50 32 z M 17.074219 34.357422 A 1 1 0 0 0 16.683594 34.433594 A 1 1 0 0 0 16.142578 35.740234 A 1 1 0 0 0 17.449219 36.28125 A 1 1 0 0 0 17.990234 34.974609 A 1 1 0 0 0 17.074219 34.357422 z M 50 35 A 1 1 0 0 0 49 36 A 1 1 0 0 0 50 37 A 1 1 0 0 0 51 36 A 1 1 0 0 0 50 35 z M 44.650391 36.064453 A 1 1 0 0 0 44.259766 36.140625 A 1 1 0 0 0 43.71875 37.447266 A 1 1 0 0 0 45.025391 37.988281 A 1 1 0 0 0 45.566406 36.681641 A 1 1 0 0 0 44.650391 36.064453 z M 55.380859 36.064453 A 1 1 0 0 0 54.433594 36.681641 A 1 1 0 0 0 54.976562 37.988281 A 1 1 0 0 0 56.28125 37.447266 A 1 1 0 0 0 55.740234 36.140625 A 1 1 0 0 0 55.380859 36.064453 z M 20.115234 38.898438 A 1 1 0 0 0 19.392578 39.191406 A 1 1 0 0 0 19.392578 40.605469 A 1 1 0 0 0 20.806641 40.605469 A 1 1 0 0 0 20.806641 39.191406 A 1 1 0 0 0 20.115234 38.898438 z M 40.115234 39.099609 A 1 1 0 0 0 39.394531 39.392578 A 1 1 0 0 0 39.394531 40.806641 A 1 1 0 0 0 40.808594 40.806641 A 1 1 0 0 0 40.808594 39.392578 A 1 1 0 0 0 40.115234 39.099609 z M 59.914062 39.101562 A 1 1 0 0 0 59.191406 39.394531 A 1 1 0 0 0 59.191406 40.808594 A 1 1 0 0 0 60.605469 40.808594 A 1 1 0 0 0 60.605469 39.394531 A 1 1 0 0 0 59.914062 39.101562 z M 49.501953 41.099609 L 49.501953 42.447266 C 46.865953 42.691266 45.263672 44.185406 45.263672 46.441406 C 45.263672 48.346406 46.454813 49.655891 48.632812 50.212891 L 49.501953 50.4375 L 49.501953 54.890625 C 48.046953 54.724625 47.109719 53.913953 47.011719 52.751953 L 44.941406 52.751953 C 44.951406 55.016953 46.708953 56.548375 49.501953 56.734375 L 49.501953 58.003906 L 50.839844 58.003906 L 50.839844 56.724609 C 53.701844 56.480609 55.351562 54.98675 55.351562 52.59375 C 55.351562 50.57275 54.197094 49.332328 51.746094 48.736328 L 50.839844 48.53125 L 50.839844 44.322266 C 52.128844 44.478266 53.007875 45.318578 53.046875 46.392578 L 55.087891 46.392578 C 55.028891 44.215578 53.368844 42.672266 50.839844 42.447266 L 50.839844 41.099609 L 49.501953 41.099609 z M 24.664062 41.933594 A 1 1 0 0 0 23.71875 42.550781 A 1 1 0 0 0 24.259766 43.857422 A 1 1 0 0 0 25.566406 43.316406 A 1 1 0 0 0 25.025391 42.009766 A 1 1 0 0 0 24.664062 41.933594 z M 37.087891 43.640625 A 1 1 0 0 0 36.142578 44.257812 A 1 1 0 0 0 36.683594 45.564453 A 1 1 0 0 0 37.990234 45.023438 A 1 1 0 0 0 37.449219 43.716797 A 1 1 0 0 0 37.087891 43.640625 z M 62.941406 43.640625 A 1 1 0 0 0 62.552734 43.716797 A 1 1 0 0 0 62.009766 45.023438 A 1 1 0 0 0 63.316406 45.564453 A 1 1 0 0 0 63.859375 44.257812 A 1 1 0 0 0 62.941406 43.640625 z M 49.501953 44.3125 L 49.501953 48.248047 C 48.095953 47.965047 47.353516 47.271625 47.353516 46.265625 C 47.353516 45.201625 48.251953 44.3805 49.501953 44.3125 z M 14 49 A 1 1 0 0 0 13 50 A 1 1 0 0 0 14 51 A 1 1 0 0 0 15 50 A 1 1 0 0 0 14 49 z M 36 49 A 1 1 0 0 0 35 50 A 1 1 0 0 0 36 51 A 1 1 0 0 0 37 50 A 1 1 0 0 0 36 49 z M 64 49 A 1 1 0 0 0 63 50 A 1 1 0 0 0 64 51 A 1 1 0 0 0 65 50 A 1 1 0 0 0 64 49 z M 50.839844 50.689453 C 52.499844 51.021453 53.270484 51.695359 53.271484 52.818359 C 53.271484 54.058359 52.382844 54.820203 50.839844 54.908203 L 50.839844 50.689453 z M 14 53 A 1 1 0 0 0 13 54 A 1 1 0 0 0 14 55 A 1 1 0 0 0 15 54 A 1 1 0 0 0 14 53 z M 62.957031 54.355469 A 1 1 0 0 0 62.011719 54.972656 A 1 1 0 0 0 62.552734 56.279297 A 1 1 0 0 0 63.859375 55.738281 A 1 1 0 0 0 63.318359 54.431641 A 1 1 0 0 0 62.957031 54.355469 z M 37.074219 54.357422 A 1 1 0 0 0 36.683594 54.433594 A 1 1 0 0 0 36.142578 55.740234 A 1 1 0 0 0 37.449219 56.28125 A 1 1 0 0 0 37.990234 54.974609 A 1 1 0 0 0 37.074219 54.357422 z M 14 57 A 1 1 0 0 0 13 58 A 1 1 0 0 0 14 59 A 1 1 0 0 0 15 58 A 1 1 0 0 0 14 57 z M 40.115234 58.898438 A 1 1 0 0 0 39.392578 59.191406 A 1 1 0 0 0 39.392578 60.605469 A 1 1 0 0 0 40.806641 60.605469 A 1 1 0 0 0 40.806641 59.191406 A 1 1 0 0 0 40.115234 58.898438 z M 59.914062 58.900391 A 1 1 0 0 0 59.191406 59.193359 A 1 1 0 0 0 59.191406 60.607422 A 1 1 0 0 0 60.605469 60.607422 A 1 1 0 0 0 60.605469 59.193359 A 1 1 0 0 0 59.914062 58.900391 z M 15 61 A 1 1 0 0 0 14 62 A 1 1 0 0 0 15 63 A 1 1 0 0 0 16 62 A 1 1 0 0 0 15 61 z M 44.664062 61.933594 A 1 1 0 0 0 43.71875 62.550781 A 1 1 0 0 0 44.259766 63.857422 A 1 1 0 0 0 45.566406 63.316406 A 1 1 0 0 0 45.025391 62.009766 A 1 1 0 0 0 44.664062 61.933594 z M 55.365234 61.933594 A 1 1 0 0 0 54.976562 62.009766 A 1 1 0 0 0 54.435547 63.314453 A 1 1 0 0 0 55.742188 63.857422 A 1 1 0 0 0 56.283203 62.550781 A 1 1 0 0 0 55.365234 61.933594 z M 50 63 A 1 1 0 0 0 49 64 A 1 1 0 0 0 50 65 A 1 1 0 0 0 51 64 A 1 1 0 0 0 50 63 z M 18 64 A 1 1 0 0 0 17 65 A 1 1 0 0 0 18 66 A 1 1 0 0 0 19 65 A 1 1 0 0 0 18 64 z M 22 65 A 1 1 0 0 0 21 66 A 1 1 0 0 0 22 67 A 1 1 0 0 0 23 66 A 1 1 0 0 0 22 65 z M 26 65 A 1 1 0 0 0 25 66 A 1 1 0 0 0 26 67 A 1 1 0 0 0 27 66 A 1 1 0 0 0 26 65 z M 30 65 A 1 1 0 0 0 29 66 A 1 1 0 0 0 30 67 A 1 1 0 0 0 31 66 A 1 1 0 0 0 30 65 z"/>
</svg>
