<?xml version="1.0"?>
<svg xmlns="http://www.w3.org/2000/svg" viewBox="0 0 80 80">
    <path style="line-height:normal;text-indent:0;text-align:start;text-decoration-line:none;text-decoration-style:solid;text-decoration-color:#000;text-transform:none;block-progression:tb;isolation:auto;mix-blend-mode:normal" d="M 39 6 A 1 1 0 0 0 38 7 A 1 1 0 0 0 39 8 A 1 1 0 0 0 40 7 A 1 1 0 0 0 39 6 z M 21 7 A 1 1 0 0 0 20 8 A 1 1 0 0 0 21 9 A 1 1 0 0 0 22 8 A 1 1 0 0 0 21 7 z M 32 8 A 1 1 0 0 0 31 9 A 1 1 0 0 0 32 10 A 1 1 0 0 0 33 9 A 1 1 0 0 0 32 8 z M 43 8 A 1 1 0 0 0 42 9 A 1 1 0 0 0 43 10 A 1 1 0 0 0 44 9 A 1 1 0 0 0 43 8 z M 25 9 A 1 1 0 0 0 24 10 A 1 1 0 0 0 25 11 A 1 1 0 0 0 26 10 A 1 1 0 0 0 25 9 z M 51 9 A 1 1 0 0 0 50 10 A 1 1 0 0 0 51 11 A 1 1 0 0 0 52 10 A 1 1 0 0 0 51 9 z M 59 9 A 1 1 0 0 0 58 10 A 1 1 0 0 0 59 11 A 1 1 0 0 0 60 10 A 1 1 0 0 0 59 9 z M 39 10 A 1 1 0 0 0 38 11 A 1 1 0 0 0 39 12 A 1 1 0 0 0 40 11 A 1 1 0 0 0 39 10 z M 35 11 A 1 1 0 0 0 34 12 A 1 1 0 0 0 35 13 A 1 1 0 0 0 36 12 A 1 1 0 0 0 35 11 z M 47 11 A 1 1 0 0 0 46 12 A 1 1 0 0 0 47 13 A 1 1 0 0 0 48 12 A 1 1 0 0 0 47 11 z M 20.984375 11.986328 A 1.0001 1.0001 0 0 0 20 13 L 20 37 L 19 37 C 17.895 37 17 37.895 17 39 C 17 40.105 17.895 41 19 41 L 20.832031 41 A 1.0001 1.0001 0 0 0 21.158203 41 L 58.832031 41 A 1.0001 1.0001 0 0 0 59.158203 41 L 61 41 C 62.105 41 63 40.105 63 39 C 63 37.895 62.105 37 61 37 L 60 37 L 60 14 A 1.0001 1.0001 0 0 0 58.984375 12.986328 A 1.0001 1.0001 0 0 0 58 14 L 58 39 L 50.244141 39 C 48.642197 34.900485 44.654256 32 40 32 C 35.346203 32 31.362784 34.902733 29.759766 39 L 22 39 L 22 37 L 22 13 A 1.0001 1.0001 0 0 0 20.984375 11.986328 z M 29 12 A 1 1 0 0 0 28 13 A 1 1 0 0 0 29 14 A 1 1 0 0 0 30 13 A 1 1 0 0 0 29 12 z M 51 13 A 1 1 0 0 0 50 14 A 1 1 0 0 0 51 15 A 1 1 0 0 0 52 14 A 1 1 0 0 0 51 13 z M 25 14 A 1 1 0 0 0 24 15 A 1 1 0 0 0 25 16 A 1 1 0 0 0 26 15 A 1 1 0 0 0 25 14 z M 10 15 C 8.3550302 15 7 16.35503 7 18 L 7 56 C 7 57.64497 8.3550302 59 10 59 L 31.896484 59 L 31.095703 67 L 27 67 A 1.0001 1.0001 0 1 0 27 69 L 53 69 A 1.0001 1.0001 0 1 0 53 67 L 48.90625 67 L 48.105469 59 L 70 59 C 71.64497 59 73 57.64497 73 56 L 73 18 C 73 16.35503 71.64497 15 70 15 L 62 15 L 62 17 L 70 17 C 70.56503 17 71 17.43497 71 18 L 71 56 C 71 56.56503 70.56503 57 70 57 L 47.904297 57 L 32.095703 57 L 10 57 C 9.4349698 57 9 56.56503 9 56 L 9 18 C 9 17.43497 9.4349698 17 10 17 L 18 17 L 18 15 L 10 15 z M 55 15 A 1 1 0 0 0 54 16 A 1 1 0 0 0 55 17 A 1 1 0 0 0 56 16 A 1 1 0 0 0 55 15 z M 25 18 A 1 1 0 0 0 24 19 A 1 1 0 0 0 25 20 A 1 1 0 0 0 26 19 A 1 1 0 0 0 25 18 z M 55 18 A 1 1 0 0 0 54 19 A 1 1 0 0 0 55 20 A 1 1 0 0 0 56 19 A 1 1 0 0 0 55 18 z M 40 19 C 37.802706 19 36 20.802706 36 23 C 36 25.197294 37.802706 27 40 27 C 42.197294 27 44 25.197294 44 23 C 44 20.802706 42.197294 19 40 19 z M 25 21 A 1 1 0 0 0 24 22 A 1 1 0 0 0 25 23 A 1 1 0 0 0 26 22 A 1 1 0 0 0 25 21 z M 40 21 C 41.116414 21 42 21.883586 42 23 C 42 24.116414 41.116414 25 40 25 C 38.883586 25 38 24.116414 38 23 C 38 21.883586 38.883586 21 40 21 z M 55 21 A 1 1 0 0 0 54 22 A 1 1 0 0 0 55 23 A 1 1 0 0 0 56 22 A 1 1 0 0 0 55 21 z M 25 24 A 1 1 0 0 0 24 25 A 1 1 0 0 0 25 26 A 1 1 0 0 0 26 25 A 1 1 0 0 0 25 24 z M 55 24 A 1 1 0 0 0 54 25 A 1 1 0 0 0 55 26 A 1 1 0 0 0 56 25 A 1 1 0 0 0 55 24 z M 25 27 A 1 1 0 0 0 24 28 A 1 1 0 0 0 25 29 A 1 1 0 0 0 26 28 A 1 1 0 0 0 25 27 z M 55 27 A 1 1 0 0 0 54 28 A 1 1 0 0 0 55 29 A 1 1 0 0 0 56 28 A 1 1 0 0 0 55 27 z M 25 30 A 1 1 0 0 0 24 31 A 1 1 0 0 0 25 32 A 1 1 0 0 0 26 31 A 1 1 0 0 0 25 30 z M 55 30 A 1 1 0 0 0 54 31 A 1 1 0 0 0 55 32 A 1 1 0 0 0 56 31 A 1 1 0 0 0 55 30 z M 25 33 A 1 1 0 0 0 24 34 A 1 1 0 0 0 25 35 A 1 1 0 0 0 26 34 A 1 1 0 0 0 25 33 z M 55 33 A 1 1 0 0 0 54 34 A 1 1 0 0 0 55 35 A 1 1 0 0 0 56 34 A 1 1 0 0 0 55 33 z M 40 34 C 43.540528 34 46.587705 36.039561 48.058594 39 L 31.943359 39 C 33.414658 36.040556 36.459538 34 40 34 z M 25 36 A 1 1 0 0 0 24 37 A 1 1 0 0 0 25 38 A 1 1 0 0 0 26 37 A 1 1 0 0 0 25 36 z M 55 36 A 1 1 0 0 0 54 37 A 1 1 0 0 0 55 38 A 1 1 0 0 0 56 37 A 1 1 0 0 0 55 36 z M 12 51 A 1 1 0 0 0 11 52 A 1 1 0 0 0 12 53 A 1 1 0 0 0 13 52 A 1 1 0 0 0 12 51 z M 16 51 A 1 1 0 0 0 15 52 A 1 1 0 0 0 16 53 A 1 1 0 0 0 17 52 A 1 1 0 0 0 16 51 z M 20 51 A 1 1 0 0 0 19 52 A 1 1 0 0 0 20 53 A 1 1 0 0 0 21 52 A 1 1 0 0 0 20 51 z M 24 51 A 1 1 0 0 0 23 52 A 1 1 0 0 0 24 53 A 1 1 0 0 0 25 52 A 1 1 0 0 0 24 51 z M 28 51 A 1 1 0 0 0 27 52 A 1 1 0 0 0 28 53 A 1 1 0 0 0 29 52 A 1 1 0 0 0 28 51 z M 32 51 A 1 1 0 0 0 31 52 A 1 1 0 0 0 32 53 A 1 1 0 0 0 33 52 A 1 1 0 0 0 32 51 z M 36 51 A 1 1 0 0 0 35 52 A 1 1 0 0 0 36 53 A 1 1 0 0 0 37 52 A 1 1 0 0 0 36 51 z M 40 51 A 1 1 0 0 0 39 52 A 1 1 0 0 0 40 53 A 1 1 0 0 0 41 52 A 1 1 0 0 0 40 51 z M 44 51 A 1 1 0 0 0 43 52 A 1 1 0 0 0 44 53 A 1 1 0 0 0 45 52 A 1 1 0 0 0 44 51 z M 48 51 A 1 1 0 0 0 47 52 A 1 1 0 0 0 48 53 A 1 1 0 0 0 49 52 A 1 1 0 0 0 48 51 z M 52 51 A 1 1 0 0 0 51 52 A 1 1 0 0 0 52 53 A 1 1 0 0 0 53 52 A 1 1 0 0 0 52 51 z M 56 51 A 1 1 0 0 0 55 52 A 1 1 0 0 0 56 53 A 1 1 0 0 0 57 52 A 1 1 0 0 0 56 51 z M 60 51 A 1 1 0 0 0 59 52 A 1 1 0 0 0 60 53 A 1 1 0 0 0 61 52 A 1 1 0 0 0 60 51 z M 64 51 A 1 1 0 0 0 63 52 A 1 1 0 0 0 64 53 A 1 1 0 0 0 65 52 A 1 1 0 0 0 64 51 z M 68 51 A 1 1 0 0 0 67 52 A 1 1 0 0 0 68 53 A 1 1 0 0 0 69 52 A 1 1 0 0 0 68 51 z M 33.904297 59 L 46.095703 59 L 46.896484 67 L 33.103516 67 L 33.904297 59 z"/>
</svg>
