<?xml version="1.0" encoding="utf-8"?>
<!-- Generator: Adobe Illustrator 22.0.1, SVG Export Plug-In . SVG Version: 6.00 Build 0)  -->
<svg version="1.1" id="Layer_1" xmlns="http://www.w3.org/2000/svg" xmlns:xlink="http://www.w3.org/1999/xlink" x="0px" y="0px"
	 viewBox="0 0 500 500" style="enable-background:new 0 0 500 500;" xml:space="preserve">
<style type="text/css">
	.st0{fill:#606060;}
	.st1{fill:#64B5F6;}
	.st2{fill:#FFFFFF;}
</style>
<g>
	<ellipse transform="matrix(0.7071 -0.7071 0.7071 0.7071 -103.5478 249.951)" class="st0" cx="249.9" cy="250" rx="115" ry="115"/>
	<g>
		<path class="st0" d="M275.4,121.6c1.3,0,2.3,0.2,3.6,0.4c19.2,4.2,37.3,13.1,52.7,25.3c6.9,5.5,8.2,15.8,2.5,22.7
			c-5.5,6.9-15.8,8.2-22.7,2.5c-11.6-9.3-25.3-15.8-39.6-19c-8.6-1.9-14.1-10.7-12.2-19.4C261.3,126.7,268.1,121.6,275.4,121.6z
			 M224.5,121.6c7.4,0,14.1,5.1,15.8,12.6c1.9,8.6-3.4,17.5-12.2,19.4c-14.3,3.4-28,9.9-39.6,19.2c-6.9,5.7-17.3,4.4-22.7-2.5
			c-5.7-6.9-4.4-17.3,2.5-22.7c15.4-12.2,33.5-21.1,52.7-25.3C221.9,121.9,223.2,121.6,224.5,121.6z M353.6,183.8
			c6.1,0,11.8,3.4,14.5,9.1c8.6,17.9,13.1,36.9,13.1,56.9c0,8.8-7.2,16.2-16.2,16.2l0,0c-8.8,0-16.2-7.2-16.2-16.2
			c0-15-3.4-29.5-9.9-42.8c-4-8-0.6-17.7,7.6-21.7C348.7,184.2,351.2,183.8,353.6,183.8z M146.5,184c2.3,0,4.8,0.4,6.9,1.7
			c8,3.8,11.4,13.5,7.6,21.7c-6.5,13.5-9.7,27.8-9.7,42.8v0.4c0,8.8-7.2,16.2-16.2,16.2c-8.8,0-16.2-7.2-16.2-16.2v-0.4
			c0-20,4.4-39.2,13.1-56.9C134.5,187.4,140.4,184,146.5,184z M353.8,283.4c2.3,0,4.6,0.4,6.9,1.7c8,3.8,11.4,13.5,7.6,21.7
			c-8.4,17.7-21.1,33.5-36.2,45.7c-6.9,5.7-17.3,4.4-22.7-2.5c-5.7-6.9-4.4-17.3,2.5-22.7c11.6-9.3,21.1-21.1,27.4-34.3
			C342,286.8,347.7,283.4,353.8,283.4z M146.5,284c5.9,0,11.8,3.4,14.5,9.1c6.5,13.3,16,25.1,27.6,34.3c6.9,5.5,8.2,15.8,2.5,22.7
			c-5.5,6.9-15.8,8.2-22.7,2.5c-15.4-12.2-28-27.8-36.4-45.5c-4-8-0.6-17.7,7.4-21.7C141.9,284.4,144.2,284,146.5,284z M275.8,345.7
			c7.4,0,14.1,5.1,15.8,12.6c2.1,8.6-3.4,17.5-12.2,19.4c-19,4.4-39.4,4.4-58.3,0.2c-8.6-1.9-14.1-10.5-12.2-19.4
			c1.9-8.6,10.5-14.1,19.4-12.2c14.3,3.2,29.7,3.2,44-0.2C273.5,345.9,274.8,345.7,275.8,345.7z"/>
	</g>
</g>
<path class="st0" d="M213.1,435l37.1,37.1v-18.5c112.2,0,203.7-91.4,203.7-203.7c0-48.9-17.3-93.7-46.1-128.9
	c-6.9-8.4-19.6-9.1-27.4-1.3l0,0c-6.7,6.7-7.4,17.3-1.3,24.6c23.4,28.9,37.5,65.5,37.5,105.5c0,91.8-74.8,166.6-166.6,166.6V398
	L213.1,435z"/>
<path class="st1" d="M46.3,249.9c0,48.9,17.3,93.7,46.1,128.9c6.9,8.4,19.6,9.1,27.4,1.3l0,0c6.7-6.7,7.4-17.3,1.3-24.6
	c-23.6-28.6-37.7-65.5-37.7-105.5c0-91.8,74.8-166.6,166.6-166.6v18.5L287,64.8l-37.1-37.1v18.5C137.7,46.2,46.3,137.7,46.3,249.9"
	/>
<g>
	<path class="st2" d="M263.2,159.3v19.4c25.3,4,45.7,19.6,45.9,48.9h-32.2c-0.8-16.8-13.5-23.4-28.9-23.4c-9.7,0-25.1,2.9-25.1,15.6
		c0,27.4,81.5,9.7,81.5,61.9c0,24.6-19.6,38.3-41.3,41.9v17.5h-27v-17.9c-22.1-4.2-39.8-17.5-40.6-43.8h32.2
		c1.7,14.7,12.2,18.5,25.3,18.5c8.6,0,19.4-3.2,19.4-13.7c0-25.1-81.5-7.2-81.5-60.9c0-28,21.5-41.3,45.5-44.6v-19.2h26.7V159.3z"/>
</g>
</svg>
