<?xml version="1.0"?>
<svg xmlns="http://www.w3.org/2000/svg" viewBox="0 0 64 64">
    <path d="M 33.5 2 C 30.36 2 27.620391 3.7002344 26.150391 6.2402344 C 25.460391 6.0802344 24.74 6 24 6 C 19.91 6 16.379844 8.47 14.839844 12 L 12.539062 12 C 11.179063 12 9.990625 12.920469 9.640625 14.230469 L 2.1699219 42.240234 C 2.0599219 42.650234 2 43.089531 2 43.519531 L 2 59 C 2 60.65 3.35 62 5 62 L 59 62 C 60.65 62 62 60.65 62 59 L 62 43.519531 C 62 43.089531 61.940078 42.650234 61.830078 42.240234 L 54.359375 14.230469 C 54.009375 12.920469 52.820937 12 51.460938 12 L 41.869141 12 C 41.949141 11.51 42 11.01 42 10.5 C 42 5.81 38.19 2 33.5 2 z M 33.5 4 C 37.08 4 40 6.92 40 10.5 C 40 11.02 39.940313 11.52 39.820312 12 C 39.650312 12.72 39.360703 13.4 38.970703 14 C 38.300703 15.04 37.340938 15.880391 36.210938 16.400391 C 35.500937 16.220391 34.76 16.099062 34 16.039062 L 34 16 C 34 15.31 33.930781 14.64 33.800781 14 C 33.660781 13.3 33.440156 12.63 33.160156 12 C 32.170156 9.73 30.359609 7.900625 28.099609 6.890625 C 29.269609 5.150625 31.25 4 33.5 4 z M 24 8 C 24.46 8 24.899844 8.039375 25.339844 8.109375 C 26.009844 8.229375 26.659766 8.4194531 27.259766 8.6894531 C 28.799766 9.3894531 30.079922 10.55 30.919922 12 C 31.279922 12.62 31.56 13.29 31.75 14 C 31.91 14.64 32 15.31 32 16 L 32 16.039062 C 27.23 16.399062 23.170703 19.36 21.220703 23.5 C 18.170703 22.36 16 19.43 16 16 C 16 15.31 16.09 14.64 16.25 14 C 16.44 13.29 16.720078 12.62 17.080078 12 C 18.460078 9.61 21.05 8 24 8 z M 24 10 C 20.691 10 18 12.691 18 16 C 18 16.552 18.447 17 19 17 C 19.553 17 20 16.552 20 16 C 20 13.794 21.794 12 24 12 C 24.553 12 25 11.552 25 11 C 25 10.448 24.553 10 24 10 z M 12.539062 14 L 14.199219 14 C 14.069219 14.64 14 15.31 14 16 C 14 20.29 16.719531 23.959141 20.519531 25.369141 C 20.179531 26.519141 20 27.74 20 29 C 20 36.17 25.83 42 33 42 C 40.17 42 46 36.17 46 29 C 46 23.85 42.990859 19.389297 38.630859 17.279297 C 39.750859 16.429297 40.660234 15.3 41.240234 14 L 51.460938 14 C 51.920938 14 52.309687 14.310234 52.429688 14.740234 L 59.900391 42.75 C 59.970391 43 60 43.259531 60 43.519531 L 60 44 L 42.828125 44 C 42.027125 44 41.273031 44.311906 40.707031 44.878906 L 37.878906 47.707031 C 37.691906 47.893031 37.434875 48 37.171875 48 L 26.828125 48 C 26.565125 48 26.307094 47.893031 26.121094 47.707031 L 23.292969 44.878906 C 22.726969 44.311906 21.972875 44 21.171875 44 L 4 44 L 4 43.519531 C 4 43.259531 4.0296094 43 4.0996094 42.75 L 11.570312 14.740234 C 11.690312 14.310234 12.079062 14 12.539062 14 z M 33 18 C 33.26 18 33.529063 18.009297 33.789062 18.029297 C 34.669063 18.089297 35.520078 18.259766 36.330078 18.509766 C 40.770078 19.929766 44 24.09 44 29 C 44 35.07 39.07 40 33 40 C 26.93 40 22 35.07 22 29 C 22 27.91 22.159219 26.870859 22.449219 25.880859 C 22.649219 25.210859 22.910703 24.570938 23.220703 23.960938 C 24.860703 20.780938 28.010703 18.510078 31.720703 18.080078 C 32.140703 18.030078 32.57 18 33 18 z M 33 20 C 32.447 20 32 20.448 32 21 L 32 22 C 29.794 22 28 23.794 28 26 C 28 28.206 29.794 30 32 30 L 34 30 C 35.103 30 36 30.897 36 32 C 36 33.103 35.103 34 34 34 L 34 32 C 34 31.448 33.553 31 33 31 C 32.447 31 32 31.448 32 32 L 32 34 C 30.897 34 30 33.103 30 32 C 30 31.448 29.553 31 29 31 C 28.447 31 28 31.448 28 32 C 28 34.206 29.794 36 32 36 L 32 37 C 32 37.552 32.447 38 33 38 C 33.553 38 34 37.552 34 37 L 34 36 C 36.206 36 38 34.206 38 32 C 38 29.794 36.206 28 34 28 L 34 26 C 34 25.448 33.553 25 33 25 C 32.447 25 32 25.448 32 26 L 32 28 C 30.897 28 30 27.103 30 26 C 30 24.897 30.897 24 32 24 L 34 24 C 35.103 24 36 24.897 36 26 C 36 26.552 36.447 27 37 27 C 37.553 27 38 26.552 38 26 C 38 23.794 36.206 22 34 22 L 34 21 C 34 20.448 33.553 20 33 20 z M 4 46 L 21.171875 46 C 21.434875 46 21.692906 46.106969 21.878906 46.292969 L 24.707031 49.121094 C 25.273031 49.688094 26.027125 50 26.828125 50 L 37.171875 50 C 37.972875 50 38.726969 49.688094 39.292969 49.121094 L 42.121094 46.292969 C 42.308094 46.106969 42.565125 46 42.828125 46 L 60 46 L 60 59 C 60 59.55 59.55 60 59 60 L 5 60 C 4.45 60 4 59.55 4 59 L 4 46 z M 7 52 C 6.447 52 6 52.448 6 53 L 6 55 C 6 55.552 6.447 56 7 56 C 7.553 56 8 55.552 8 55 L 8 53 C 8 52.448 7.553 52 7 52 z M 12 52 C 11.447 52 11 52.448 11 53 L 11 55 C 11 55.552 11.447 56 12 56 C 12.553 56 13 55.552 13 55 L 13 53 C 13 52.448 12.553 52 12 52 z M 17 52 C 16.447 52 16 52.448 16 53 L 16 55 C 16 55.552 16.447 56 17 56 C 17.553 56 18 55.552 18 55 L 18 53 C 18 52.448 17.553 52 17 52 z M 22 52 C 21.447 52 21 52.448 21 53 L 21 55 C 21 55.552 21.447 56 22 56 C 22.553 56 23 55.552 23 55 L 23 53 C 23 52.448 22.553 52 22 52 z M 27 52 C 26.447 52 26 52.448 26 53 L 26 55 C 26 55.552 26.447 56 27 56 C 27.553 56 28 55.552 28 55 L 28 53 C 28 52.448 27.553 52 27 52 z M 32 52 C 31.447 52 31 52.448 31 53 L 31 55 C 31 55.552 31.447 56 32 56 C 32.553 56 33 55.552 33 55 L 33 53 C 33 52.448 32.553 52 32 52 z M 37 52 C 36.447 52 36 52.448 36 53 L 36 55 C 36 55.552 36.447 56 37 56 C 37.553 56 38 55.552 38 55 L 38 53 C 38 52.448 37.553 52 37 52 z M 42 52 C 41.447 52 41 52.448 41 53 L 41 55 C 41 55.552 41.447 56 42 56 C 42.553 56 43 55.552 43 55 L 43 53 C 43 52.448 42.553 52 42 52 z M 47 52 C 46.447 52 46 52.448 46 53 L 46 55 C 46 55.552 46.447 56 47 56 C 47.553 56 48 55.552 48 55 L 48 53 C 48 52.448 47.553 52 47 52 z M 52 52 C 51.447 52 51 52.448 51 53 L 51 55 C 51 55.552 51.447 56 52 56 C 52.553 56 53 55.552 53 55 L 53 53 C 53 52.448 52.553 52 52 52 z M 57 52 C 56.447 52 56 52.448 56 53 L 56 55 C 56 55.552 56.447 56 57 56 C 57.553 56 58 55.552 58 55 L 58 53 C 58 52.448 57.553 52 57 52 z"/>
</svg>
