<?xml version="1.0" encoding="iso-8859-1"?>
<!-- Generator: Adobe Illustrator 21.1.0, SVG Export Plug-In . SVG Version: 6.00 Build 0)  -->
<svg xmlns="http://www.w3.org/2000/svg" xmlns:xlink="http://www.w3.org/1999/xlink" version="1.1" id="Layer_1" x="0px" y="0px" viewBox="0 0 64 64" style="enable-background:new 0 0 64 64;" xml:space="preserve">
<g>
	<g>
		<polygon style="fill:#FAEFDE;" points="21.001,5.238 23.392,6.031 27.695,3.803 32,6.031 36.305,3.803 40.61,6.031 43,5.238     39.798,16.447 24.203,16.447   "/>
		<path style="fill:#FFF7F0;" d="M40.61,6.031l-4.305-2.228L32,6.031l-4.305-2.228l-4.303,2.228l-2.392-0.793l0.778,2.346    L23.401,8.8c0.355,0.268,0.845,0.268,1.2,0L28,6.25l3.4,2.55c0.355,0.268,0.845,0.268,1.2,0L36,6.25l3.4,2.55    c0.355,0.268,0.845,0.268,1.2,0l1.622-1.216L43,5.238L40.61,6.031z"/>
		<path style="fill:#FAEFDE;" d="M58.733,58.513c-0.202,0.225-0.479,0.349-0.781,0.349H6.048c-0.302,0-0.579-0.124-0.781-0.349    c-0.201-0.225-0.294-0.515-0.261-0.815l2.038-18.345c0.505-4.541,2.953-8.629,6.718-11.217l10.18-6.999h16.116l10.18,6.999    c3.764,2.588,6.213,6.676,6.718,11.217l2.038,18.345C59.027,57.999,58.934,58.288,58.733,58.513z"/>
		<path style="fill:#FFF7F0;" d="M52.447,30c-0.677-0.679-1.406-1.312-2.21-1.864l-10.18-6.999H23.943l-10.18,6.999    c-0.803,0.552-1.532,1.185-2.21,1.864H52.447z"/>
		<path style="fill:#EFD8BE;" d="M55,54H9c-2.209,0-4,1.791-4,4v0c0,0.552,0.448,1,1,1h52c0.552,0,1-0.448,1-1v0    C59,55.791,57.209,54,55,54z"/>
		<path style="fill:#CDA1A7;" d="M40,21H24c-1.105,0-2-0.895-2-2v0c0-1.105,0.895-2,2-2h16c1.105,0,2,0.895,2,2v0    C42,20.105,41.105,21,40,21z"/>
	</g>
	<g>
		<path style="fill:#8D6C9F;" d="M59.747,56.669l-1.945-17.507c-0.545-4.91-3.193-9.332-7.265-12.132l-8.498-5.842    c0.31-0.289,0.563-0.636,0.729-1.032l10.054,1.828C52.882,21.995,52.942,22,53.001,22c0.474,0,0.895-0.338,0.983-0.821    c0.099-0.543-0.262-1.064-0.805-1.163l-8.3-1.509l4.618-2.639c0.479-0.274,0.646-0.885,0.372-1.364    c-0.273-0.479-0.884-0.645-1.364-0.372l-5.915,3.38c-0.31-0.538-0.776-0.971-1.343-1.233l3.716-13.004    c0.118-0.413-0.041-0.855-0.395-1.099C44.214,1.934,43.745,1.943,43.4,2.2L40,4.75L36.6,2.2c-0.355-0.268-0.845-0.267-1.2,0    L32,4.75L28.6,2.2c-0.355-0.267-0.845-0.267-1.2,0L24,4.75l-3.4-2.55c-0.344-0.258-0.814-0.268-1.167-0.024    c-0.354,0.244-0.513,0.686-0.395,1.099l3.715,13.004C21.722,16.754,21,17.791,21,19c0,0.865,0.374,1.64,0.961,2.188l-8.498,5.842    c-4.072,2.8-6.72,7.222-7.265,12.132L4.252,56.669C4.159,57.516,4.431,58.366,5,59.001S6.382,60,7.234,60h49.531    c0.852,0,1.667-0.364,2.235-0.999S59.841,57.516,59.747,56.669z M24,18h15.997c0.001,0,0.002,0,0.003,0c0,0,0.001,0,0.001,0    C40.552,18.001,41,18.449,41,19c0,0.551-0.449,1-1,1H24c-0.551,0-1-0.449-1-1S23.449,18,24,18z M23.4,6.8    c0.355,0.267,0.845,0.267,1.2,0L28,4.25l3.4,2.55c0.355,0.268,0.845,0.267,1.2,0L36,4.25l3.4,2.55c0.355,0.268,0.845,0.267,1.2,0    l1.622-1.216L39.246,16H24.754L21.778,5.583L23.4,6.8z M57.511,57.667C57.318,57.882,57.054,58,56.766,58H7.234    c-0.288,0-0.553-0.118-0.745-0.333c-0.192-0.215-0.281-0.491-0.249-0.777l1.945-17.507c0.481-4.333,2.818-8.234,6.411-10.704    L24.311,22h15.379l9.714,6.679c3.592,2.47,5.929,6.372,6.411,10.704l1.945,17.507C57.792,57.176,57.703,57.452,57.511,57.667z"/>
		<path style="fill:#8D6C9F;" d="M45,52c-0.552,0-1,0.448-1,1v2c0,0.552,0.448,1,1,1s1-0.448,1-1v-2C46,52.448,45.552,52,45,52z"/>
		<path style="fill:#8D6C9F;" d="M50,52c-0.552,0-1,0.448-1,1v2c0,0.552,0.448,1,1,1s1-0.448,1-1v-2C51,52.448,50.552,52,50,52z"/>
		<path style="fill:#8D6C9F;" d="M55,52c-0.552,0-1,0.448-1,1v2c0,0.552,0.448,1,1,1s1-0.448,1-1v-2C56,52.448,55.552,52,55,52z"/>
		<path style="fill:#8D6C9F;" d="M40,52c-0.552,0-1,0.448-1,1v2c0,0.552,0.448,1,1,1s1-0.448,1-1v-2C41,52.448,40.552,52,40,52z"/>
		<path style="fill:#8D6C9F;" d="M35,52c-0.552,0-1,0.448-1,1v2c0,0.552,0.448,1,1,1s1-0.448,1-1v-2C36,52.448,35.552,52,35,52z"/>
		<path style="fill:#8D6C9F;" d="M29,52c-0.552,0-1,0.448-1,1v2c0,0.552,0.448,1,1,1s1-0.448,1-1v-2C30,52.448,29.552,52,29,52z"/>
		<path style="fill:#8D6C9F;" d="M24,52c-0.552,0-1,0.448-1,1v2c0,0.552,0.448,1,1,1s1-0.448,1-1v-2C25,52.448,24.552,52,24,52z"/>
		<path style="fill:#8D6C9F;" d="M19,52c-0.552,0-1,0.448-1,1v2c0,0.552,0.448,1,1,1s1-0.448,1-1v-2C20,52.448,19.552,52,19,52z"/>
		<path style="fill:#8D6C9F;" d="M14,52c-0.552,0-1,0.448-1,1v2c0,0.552,0.448,1,1,1s1-0.448,1-1v-2C15,52.448,14.552,52,14,52z"/>
		<path style="fill:#8D6C9F;" d="M9,52c-0.552,0-1,0.448-1,1v2c0,0.552,0.448,1,1,1s1-0.448,1-1v-2C10,52.448,9.552,52,9,52z"/>
		<path style="fill:#8D6C9F;" d="M40,42c0-2.757-2.243-5-5-5h-1v-5c0-0.552-0.448-1-1-1s-1,0.448-1,1v5h-1c-1.654,0-3-1.346-3-3v-1    c0-1.654,1.346-3,3-3h4c1.654,0,3,1.346,3,3c0,0.552,0.448,1,1,1s1-0.448,1-1c0-2.757-2.243-5-5-5h-1v-2c0-0.552-0.448-1-1-1    s-1,0.448-1,1v2h-1c-2.757,0-5,2.243-5,5v1c0,2.757,2.243,5,5,5h4c1.654,0,3,1.346,3,3v1c0,1.654-1.346,3-3,3h-1v-5    c0-0.552-0.448-1-1-1s-1,0.448-1,1v5h-1c-1.654,0-3-1.346-3-3c0-0.552-0.448-1-1-1s-1,0.448-1,1c0,2.757,2.243,5,5,5h1v2    c0,0.552,0.448,1,1,1s1-0.448,1-1v-2h1c2.757,0,5-2.243,5-5V42z"/>
	</g>
</g>
</svg>
