<?xml version="1.0"?>
<svg xmlns="http://www.w3.org/2000/svg" viewBox="0 0 80 80">
    <path style="line-height:normal;text-indent:0;text-align:start;text-decoration-line:none;text-decoration-style:solid;text-decoration-color:#000;text-transform:none;block-progression:tb;isolation:auto;mix-blend-mode:normal" d="M 62.708984 10.236328 L 12.857422 13.869141 C 11.257654 13.979724 10 15.328235 10 16.931641 L 10 17 L 10 17.931641 L 10 65 C 10 67.749516 12.250484 70 15 70 L 65 70 C 67.749516 70 70 67.749516 70 65 L 70 49.71875 C 70.592739 49.369097 71 48.728819 71 48 L 71 40 C 71 39.271181 70.592739 38.630903 70 38.28125 L 70 23 C 70 20.961451 68.760378 19.201863 67 18.425781 L 67 14.226562 C 67 11.917491 65.011495 10.069403 62.708984 10.236328 z M 62.853516 12.230469 C 64.027005 12.145394 65 13.049636 65 14.226562 L 65 18 L 17.089844 18 L 13.068359 18 C 12.465459 18 12 17.534541 12 16.931641 C 12 16.361047 12.425862 15.904651 12.996094 15.865234 L 12.998047 15.865234 L 62.853516 12.230469 z M 12 19.753906 C 12.320632 19.905664 12.673949 20 13.068359 20 L 17.089844 20 L 65 20 C 66.668484 20 68 21.331516 68 23 L 68 38 L 61 38 C 57.698375 38 55 40.698375 55 44 L 55 45 L 55.203125 45 C 55.698522 47.810269 58.052633 50 61 50 L 68 50 L 68 65 C 68 66.668484 66.668484 68 65 68 L 15 68 C 13.331516 68 12 66.668484 12 65 L 12 19.753906 z M 16 23 A 1 1 0 0 0 15 24 A 1 1 0 0 0 16 25 A 1 1 0 0 0 17 24 A 1 1 0 0 0 16 23 z M 20 23 A 1 1 0 0 0 19 24 A 1 1 0 0 0 20 25 A 1 1 0 0 0 21 24 A 1 1 0 0 0 20 23 z M 24 23 A 1 1 0 0 0 23 24 A 1 1 0 0 0 24 25 A 1 1 0 0 0 25 24 A 1 1 0 0 0 24 23 z M 28 23 A 1 1 0 0 0 27 24 A 1 1 0 0 0 28 25 A 1 1 0 0 0 29 24 A 1 1 0 0 0 28 23 z M 32 23 A 1 1 0 0 0 31 24 A 1 1 0 0 0 32 25 A 1 1 0 0 0 33 24 A 1 1 0 0 0 32 23 z M 36 23 A 1 1 0 0 0 35 24 A 1 1 0 0 0 36 25 A 1 1 0 0 0 37 24 A 1 1 0 0 0 36 23 z M 40 23 A 1 1 0 0 0 39 24 A 1 1 0 0 0 40 25 A 1 1 0 0 0 41 24 A 1 1 0 0 0 40 23 z M 44 23 A 1 1 0 0 0 43 24 A 1 1 0 0 0 44 25 A 1 1 0 0 0 45 24 A 1 1 0 0 0 44 23 z M 48 23 A 1 1 0 0 0 47 24 A 1 1 0 0 0 48 25 A 1 1 0 0 0 49 24 A 1 1 0 0 0 48 23 z M 52 23 A 1 1 0 0 0 51 24 A 1 1 0 0 0 52 25 A 1 1 0 0 0 53 24 A 1 1 0 0 0 52 23 z M 56 23 A 1 1 0 0 0 55 24 A 1 1 0 0 0 56 25 A 1 1 0 0 0 57 24 A 1 1 0 0 0 56 23 z M 60 23 A 1 1 0 0 0 59 24 A 1 1 0 0 0 60 25 A 1 1 0 0 0 61 24 A 1 1 0 0 0 60 23 z M 64 23 A 1 1 0 0 0 63 24 A 1 1 0 0 0 64 25 A 1 1 0 0 0 65 24 A 1 1 0 0 0 64 23 z M 16 27 A 1 1 0 0 0 15 28 A 1 1 0 0 0 16 29 A 1 1 0 0 0 17 28 A 1 1 0 0 0 16 27 z M 64 27 A 1 1 0 0 0 63 28 A 1 1 0 0 0 64 29 A 1 1 0 0 0 65 28 A 1 1 0 0 0 64 27 z M 16 31 A 1 1 0 0 0 15 32 A 1 1 0 0 0 16 33 A 1 1 0 0 0 17 32 A 1 1 0 0 0 16 31 z M 64 31 A 1 1 0 0 0 63 32 A 1 1 0 0 0 64 33 A 1 1 0 0 0 65 32 A 1 1 0 0 0 64 31 z M 16 35 A 1 1 0 0 0 15 36 A 1 1 0 0 0 16 37 A 1 1 0 0 0 17 36 A 1 1 0 0 0 16 35 z M 64 35 A 1 1 0 0 0 63 36 A 1 1 0 0 0 64 37 A 1 1 0 0 0 65 36 A 1 1 0 0 0 64 35 z M 16 39 A 1 1 0 0 0 15 40 A 1 1 0 0 0 16 41 A 1 1 0 0 0 17 40 A 1 1 0 0 0 16 39 z M 61 40 L 69 40 L 69 48 L 61 48 C 58.779625 48 57 46.220375 57 44 C 57 41.779625 58.779625 40 61 40 z M 61 42 A 2 2 0 0 0 59 44 A 2 2 0 0 0 61 46 A 2 2 0 0 0 63 44 A 2 2 0 0 0 61 42 z M 16 43 A 1 1 0 0 0 15 44 A 1 1 0 0 0 16 45 A 1 1 0 0 0 17 44 A 1 1 0 0 0 16 43 z M 16 47 A 1 1 0 0 0 15 48 A 1 1 0 0 0 16 49 A 1 1 0 0 0 17 48 A 1 1 0 0 0 16 47 z M 16 51 A 1 1 0 0 0 15 52 A 1 1 0 0 0 16 53 A 1 1 0 0 0 17 52 A 1 1 0 0 0 16 51 z M 64 51 A 1 1 0 0 0 63 52 A 1 1 0 0 0 64 53 A 1 1 0 0 0 65 52 A 1 1 0 0 0 64 51 z M 16 55 A 1 1 0 0 0 15 56 A 1 1 0 0 0 16 57 A 1 1 0 0 0 17 56 A 1 1 0 0 0 16 55 z M 64 55 A 1 1 0 0 0 63 56 A 1 1 0 0 0 64 57 A 1 1 0 0 0 65 56 A 1 1 0 0 0 64 55 z M 16 59 A 1 1 0 0 0 15 60 A 1 1 0 0 0 16 61 A 1 1 0 0 0 17 60 A 1 1 0 0 0 16 59 z M 64 59 A 1 1 0 0 0 63 60 A 1 1 0 0 0 64 61 A 1 1 0 0 0 65 60 A 1 1 0 0 0 64 59 z M 16 63 A 1 1 0 0 0 15 64 A 1 1 0 0 0 16 65 A 1 1 0 0 0 17 64 A 1 1 0 0 0 16 63 z M 20 63 A 1 1 0 0 0 19 64 A 1 1 0 0 0 20 65 A 1 1 0 0 0 21 64 A 1 1 0 0 0 20 63 z M 24 63 A 1 1 0 0 0 23 64 A 1 1 0 0 0 24 65 A 1 1 0 0 0 25 64 A 1 1 0 0 0 24 63 z M 28 63 A 1 1 0 0 0 27 64 A 1 1 0 0 0 28 65 A 1 1 0 0 0 29 64 A 1 1 0 0 0 28 63 z M 32 63 A 1 1 0 0 0 31 64 A 1 1 0 0 0 32 65 A 1 1 0 0 0 33 64 A 1 1 0 0 0 32 63 z M 36 63 A 1 1 0 0 0 35 64 A 1 1 0 0 0 36 65 A 1 1 0 0 0 37 64 A 1 1 0 0 0 36 63 z M 40 63 A 1 1 0 0 0 39 64 A 1 1 0 0 0 40 65 A 1 1 0 0 0 41 64 A 1 1 0 0 0 40 63 z M 44 63 A 1 1 0 0 0 43 64 A 1 1 0 0 0 44 65 A 1 1 0 0 0 45 64 A 1 1 0 0 0 44 63 z M 48 63 A 1 1 0 0 0 47 64 A 1 1 0 0 0 48 65 A 1 1 0 0 0 49 64 A 1 1 0 0 0 48 63 z M 52 63 A 1 1 0 0 0 51 64 A 1 1 0 0 0 52 65 A 1 1 0 0 0 53 64 A 1 1 0 0 0 52 63 z M 56 63 A 1 1 0 0 0 55 64 A 1 1 0 0 0 56 65 A 1 1 0 0 0 57 64 A 1 1 0 0 0 56 63 z M 60 63 A 1 1 0 0 0 59 64 A 1 1 0 0 0 60 65 A 1 1 0 0 0 61 64 A 1 1 0 0 0 60 63 z M 64 63 A 1 1 0 0 0 63 64 A 1 1 0 0 0 64 65 A 1 1 0 0 0 65 64 A 1 1 0 0 0 64 63 z"/>
</svg>
