<?xml version="1.0"?>
<svg xmlns="http://www.w3.org/2000/svg" viewBox="0 0 64 64">
    <path d="M 32 4 C 29.798 4 26.650406 4.6878594 24.691406 6.0058594 C 20.968406 6.1418594 18.418906 8.7563906 18.003906 12.900391 C 17.747906 15.460391 17.981719 17.291906 18.136719 18.503906 C 18.190719 18.924906 18.250469 19.401016 18.230469 19.541016 C 18.197469 19.728016 18.168578 19.915469 18.142578 20.105469 C 17.976578 20.111469 17.830078 20.137875 17.705078 20.171875 C 16.803078 20.411875 16.170875 21.214594 15.921875 22.433594 C 15.722875 23.410594 15.784563 24.598344 16.101562 25.777344 C 16.636563 27.775344 17.758375 29.275375 18.984375 29.734375 C 19.583375 31.563375 20.448578 33.378156 21.517578 35.035156 L 8.2539062 41.378906 C 4.4549063 43.194906 2 47.090734 2 51.302734 L 2 59 C 2 60.654 3.346 62 5 62 L 59 62 C 60.654 62 62 60.654 62 59 L 62 51.302734 C 62 47.090734 59.545094 43.194906 55.746094 41.378906 L 42.480469 35.035156 C 43.549469 33.379156 44.415672 31.562422 45.013672 29.732422 C 46.239672 29.273422 47.361484 27.773391 47.896484 25.775391 C 48.212484 24.596391 48.277125 23.410594 48.078125 22.433594 C 47.829125 21.214594 47.194969 20.410922 46.292969 20.169922 C 46.169969 20.136922 46.024328 20.111469 45.861328 20.105469 C 45.720328 19.034469 45.448359 18.036969 44.943359 16.667969 C 44.928359 16.628969 44.91725 16.592547 44.90625 16.560547 C 45.25925 16.589547 45.824109 16.732828 46.287109 16.923828 C 46.632109 17.066828 47.025547 17.005578 47.310547 16.767578 C 47.595547 16.528578 47.726484 16.151109 47.646484 15.787109 C 46.033484 8.4061094 40.558 4 33 4 L 32 4 z M 32 6 L 33 6 C 39.069 6 43.453953 9.1030312 45.251953 14.582031 C 44.560953 14.502031 43.845516 14.588547 43.353516 15.060547 C 42.971516 15.426547 42.611406 16.123375 43.066406 17.359375 C 43.684406 19.035375 43.905703 20.025594 43.970703 21.433594 C 43.987703 21.791594 44.194672 22.112391 44.513672 22.275391 C 44.830672 22.439391 45.212672 22.420609 45.513672 22.224609 C 45.675672 22.119609 45.76225 22.106469 45.78125 22.105469 C 45.83825 22.127469 46.017141 22.335984 46.119141 22.833984 C 46.256141 23.502984 46.199797 24.387766 45.966797 25.259766 C 45.473797 27.102766 44.529328 27.880859 44.236328 27.880859 L 44.234375 27.880859 C 43.792375 27.880859 43.402391 28.171703 43.275391 28.595703 C 41.590391 34.262703 37.177 40 32 40 C 26.823 40 22.409562 34.262703 20.726562 28.595703 C 20.599563 28.171703 20.209578 27.880859 19.767578 27.880859 L 19.765625 27.880859 C 19.472625 27.880859 18.528156 27.102766 18.035156 25.259766 C 17.802156 24.387766 17.745812 23.502984 17.882812 22.833984 C 17.986812 22.323984 18.171797 22.116516 18.216797 22.103516 C 18.218797 22.103516 18.305281 22.106609 18.488281 22.224609 C 18.788281 22.419609 19.170281 22.440391 19.488281 22.275391 C 19.807281 22.112391 20.01425 21.791594 20.03125 21.433594 C 20.05525 20.910594 20.112172 20.390672 20.201172 19.888672 C 20.277172 19.460672 20.217047 18.98 20.123047 18.25 C 19.980047 17.128 19.763094 15.432609 19.996094 13.099609 C 20.315094 9.9066094 22.186531 8 25.019531 8 C 25.235531 8 25.446141 7.9297812 25.619141 7.8007812 C 26.987141 6.7737812 29.732 6 32 6 z M 26.527344 12.125 C 25.813719 12.064297 25.094891 12.391328 24.681641 13.017578 L 23.078125 15.449219 C 22.774125 15.910219 22.901281 16.531937 23.363281 16.835938 C 23.532281 16.946938 23.724109 17 23.912109 17 C 24.237109 17 24.556047 16.842781 24.748047 16.550781 L 26.353516 14.117188 L 27.914062 14.878906 C 30.762063 16.267906 33.942328 17 37.111328 17 L 39.667969 17 C 40.220969 17 40.667969 16.553 40.667969 16 C 40.667969 15.447 40.220969 15 39.667969 15 L 37.111328 15 C 34.244328 15 31.367016 14.336078 28.791016 13.080078 L 27.228516 12.318359 C 27.003266 12.208859 26.765219 12.145234 26.527344 12.125 z M 22.701172 36.685547 C 25.159172 39.789547 28.404 42 32 42 C 35.596 42 38.840828 39.789547 41.298828 36.685547 L 41.943359 36.994141 L 37.091797 50.945312 L 35.080078 46.923828 L 35.949219 44.316406 C 36.123219 43.791406 35.840406 43.226734 35.316406 43.052734 C 34.787406 42.876734 34.225781 43.159594 34.050781 43.683594 L 33.279297 46 L 30.720703 46 L 29.947266 43.683594 C 29.772266 43.160594 29.213594 42.876734 28.683594 43.052734 C 28.160594 43.226734 27.875781 43.791406 28.050781 44.316406 L 28.919922 46.923828 L 26.908203 50.945312 L 22.056641 36.994141 L 22.701172 36.685547 z M 20.242188 37.863281 L 27.941406 60 L 25.5 60 L 17.25 49 L 19.800781 45.599609 C 19.959781 45.387609 20.028234 45.121375 19.990234 44.859375 L 19.070312 38.423828 L 20.242188 37.863281 z M 43.757812 37.863281 L 44.929688 38.423828 L 44.009766 44.859375 C 43.972766 45.122375 44.040219 45.387609 44.199219 45.599609 L 46.728516 48.974609 L 37.625 60 L 36.058594 60 L 43.757812 37.863281 z M 17.179688 39.328125 L 17.951172 44.732422 L 15.199219 48.400391 C 14.932219 48.755391 14.932219 49.244609 15.199219 49.599609 L 23 60 L 5 60 C 4.448 60 4 59.552 4 59 L 4 51.302734 C 4 47.857734 6.0091875 44.669594 9.1171875 43.183594 L 17.179688 39.328125 z M 46.820312 39.328125 L 54.882812 43.183594 C 57.991813 44.669594 60 47.856734 60 51.302734 L 60 59 C 60 59.552 59.552 60 59 60 L 40.292969 60 L 48.773438 49.632812 C 49.064437 49.277813 49.075828 48.768391 48.798828 48.400391 L 46.048828 44.732422 L 46.820312 39.328125 z M 30.617188 48 L 33.382812 48 L 36.105469 53.447266 C 36.126469 53.489266 36.157594 53.520594 36.183594 53.558594 L 34.056641 59.671875 C 34.018641 59.780875 34.011719 59.891 34.011719 60 L 29.990234 60 C 29.990234 59.891 29.983312 59.780875 29.945312 59.671875 L 27.814453 53.548828 C 27.839453 53.512828 27.874531 53.487266 27.894531 53.447266 L 30.617188 48 z M 7 54 C 6.447 54 6 54.447 6 55 L 6 57 C 6 57.553 6.447 58 7 58 C 7.553 58 8 57.553 8 57 L 8 55 C 8 54.447 7.553 54 7 54 z M 12 54 C 11.447 54 11 54.447 11 55 L 11 57 C 11 57.553 11.447 58 12 58 C 12.553 58 13 57.553 13 57 L 13 55 C 13 54.447 12.553 54 12 54 z M 17 54 C 16.447 54 16 54.447 16 55 L 16 57 C 16 57.553 16.447 58 17 58 C 17.553 58 18 57.553 18 57 L 18 55 C 18 54.447 17.553 54 17 54 z M 47 54 C 46.447 54 46 54.447 46 55 L 46 57 C 46 57.553 46.447 58 47 58 C 47.553 58 48 57.553 48 57 L 48 55 C 48 54.447 47.553 54 47 54 z M 52 54 C 51.447 54 51 54.447 51 55 L 51 57 C 51 57.553 51.447 58 52 58 C 52.553 58 53 57.553 53 57 L 53 55 C 53 54.447 52.553 54 52 54 z M 57 54 C 56.447 54 56 54.447 56 55 L 56 57 C 56 57.553 56.447 58 57 58 C 57.553 58 58 57.553 58 57 L 58 55 C 58 54.447 57.553 54 57 54 z"/>
</svg>
