<?xml version="1.0"?>
<svg xmlns="http://www.w3.org/2000/svg" viewBox="0 0 64 64">
    <path d="M 5 8 C 3.3 8 2 9.3 2 11 L 2 51 C 2 52.7 3.3 54 5 54 L 10 54 L 10 56 C 10 57.1 10.9 58 12 58 L 16 58 C 17.1 58 18 57.1 18 56 L 18 54 L 46 54 L 46 56 C 46 57.1 46.9 58 48 58 L 52 58 C 53.1 58 54 57.1 54 56 L 54 54 L 59 54 C 60.7 54 62 52.7 62 51 L 62 11 C 62 9.3 60.7 8 59 8 L 5 8 z M 5 10 L 59 10 C 59.6 10 60 10.4 60 11 L 60 51 C 60 51.6 59.6 52 59 52 L 52 52 L 48 52 L 16 52 L 12 52 L 5 52 C 4.4 52 4 51.6 4 51 L 4 11 C 4 10.4 4.4 10 5 10 z M 11 14 C 9.3 14 8 15.3 8 17 L 8 45 C 8 46.7 9.3 48 11 48 L 53 48 C 54.7 48 56 46.7 56 45 L 56 44 C 56 43.4 55.6 43 55 43 C 54.4 43 54 43.4 54 44 L 54 45 C 54 45.6 53.6 46 53 46 L 11 46 C 10.4 46 10 45.6 10 45 L 10 17 C 10 16.4 10.4 16 11 16 L 53 16 C 53.6 16 54 16.4 54 17 L 54 18 C 54 18.6 54.4 19 55 19 C 55.6 19 56 18.6 56 18 L 56 17 C 56 15.3 54.7 14 53 14 L 11 14 z M 54 20 C 52.9 20 52 20.9 52 22 L 52 26 C 52 27.1 52.9 28 54 28 L 56 28 C 57.1 28 58 27.1 58 26 L 58 22 C 58 20.9 57.1 20 56 20 L 54 20 z M 32 21 C 26.5 21 22 25.5 22 31 C 22 36.5 26.5 41 32 41 C 37.5 41 42 36.5 42 31 C 42 25.5 37.5 21 32 21 z M 13 22 C 12.4 22 12 22.4 12 23 L 12 39 C 12 39.6 12.4 40 13 40 C 13.6 40 14 39.6 14 39 L 14 23 C 14 22.4 13.6 22 13 22 z M 54 22 L 56 22 L 56 26 L 54 26 L 54 22 z M 32 22.800781 C 36.5 22.800781 40.199219 26.5 40.199219 31 C 40.199219 35.5 36.5 39.199219 32 39.199219 C 27.5 39.199219 23.800781 35.5 23.800781 31 C 23.800781 26.5 27.5 22.800781 32 22.800781 z M 32 24 C 31.4 24 31 24.4 31 25 L 31 26.800781 C 31 27.400781 31.4 27.800781 32 27.800781 C 32.6 27.800781 33 27.400781 33 26.800781 L 33 25 C 33 24.4 32.6 24 32 24 z M 27.800781 25.699219 C 27.550781 25.699219 27.299609 25.8 27.099609 26 C 26.699609 26.4 26.699609 27.000391 27.099609 27.400391 L 28.400391 28.699219 C 28.600391 28.899219 28.899609 29 29.099609 29 C 29.299609 29 29.600781 28.899219 29.800781 28.699219 C 30.200781 28.299219 30.200781 27.700781 29.800781 27.300781 L 28.5 26 C 28.3 25.8 28.050781 25.699219 27.800781 25.699219 z M 36.300781 25.699219 C 36.050781 25.699219 35.799609 25.8 35.599609 26 L 34.300781 27.300781 C 33.900781 27.700781 33.900781 28.299219 34.300781 28.699219 C 34.500781 28.899219 34.7 29 35 29 C 35.3 29 35.499219 28.899219 35.699219 28.699219 L 37 27.400391 C 37.4 27.000391 37.4 26.4 37 26 C 36.8 25.8 36.550781 25.699219 36.300781 25.699219 z M 55 29 C 54.4 29 54 29.4 54 30 L 54 32 C 54 32.6 54.4 33 55 33 C 55.6 33 56 32.6 56 32 L 56 30 C 56 29.4 55.6 29 55 29 z M 26 30 C 25.4 30 25 30.4 25 31 C 25 31.6 25.4 32 26 32 L 27.800781 32 C 28.400781 32 28.800781 31.6 28.800781 31 C 28.800781 30.4 28.400781 30 27.800781 30 L 26 30 z M 36.199219 30 C 35.599219 30 35.199219 30.4 35.199219 31 C 35.199219 31.6 35.599219 32 36.199219 32 L 38 32 C 38.6 32 39 31.6 39 31 C 39 30.4 38.6 30 38 30 L 36.199219 30 z M 34.900391 32.800781 C 34.650391 32.800781 34.399219 32.899609 34.199219 33.099609 C 33.799219 33.499609 33.799219 34.1 34.199219 34.5 L 35.5 35.800781 C 35.7 36.000781 35.999219 36.099609 36.199219 36.099609 C 36.399219 36.099609 36.700391 36.000781 36.900391 35.800781 C 37.300391 35.400781 37.300391 34.800391 36.900391 34.400391 L 35.599609 33.099609 C 35.399609 32.899609 35.150391 32.800781 34.900391 32.800781 z M 29.099609 32.900391 C 28.849609 32.900391 28.600391 32.999219 28.400391 33.199219 L 27.099609 34.5 C 26.699609 34.9 26.699609 35.500391 27.099609 35.900391 C 27.299609 36.100391 27.600781 36.199219 27.800781 36.199219 C 28.000781 36.199219 28.3 36.100391 28.5 35.900391 L 29.800781 34.599609 C 30.200781 34.199609 30.200781 33.599219 29.800781 33.199219 C 29.600781 32.999219 29.349609 32.900391 29.099609 32.900391 z M 32 34 C 31.4 34 31 34.4 31 35 L 31 36.800781 C 31 37.400781 31.4 37.800781 32 37.800781 C 32.6 37.800781 33 37.400781 33 36.800781 L 33 35 C 33 34.4 32.6 34 32 34 z M 54 34 C 52.9 34 52 34.9 52 36 L 52 40 C 52 41.1 52.9 42 54 42 L 56 42 C 57.1 42 58 41.1 58 40 L 58 36 C 58 34.9 57.1 34 56 34 L 54 34 z M 54 36 L 56 36 L 56 40 L 54 40 L 54 36 z M 12 54 L 16 54 L 16 56 L 12 56 L 12 54 z M 48 54 L 52 54 L 52 56 L 48 56 L 48 54 z"/>
</svg>
