<?xml version="1.0"?>
<svg xmlns="http://www.w3.org/2000/svg" viewBox="0 0 64 64">
    <path d="M 9 6 C 7.698 6 6.5975938 6.839 6.1835938 8 L 5 8 C 3.346 8 2 9.346 2 11 L 2 51 C 2 52.654 3.346 54 5 54 L 26.220703 54 C 26.808703 54 27.319891 54.399703 27.462891 54.970703 C 27.907891 56.754703 29.50475 58 31.34375 58 L 34.65625 58 C 36.49525 58 38.092109 56.754703 38.537109 54.970703 C 38.681109 54.399703 39.191297 54 39.779297 54 L 61 54 C 62.654 54 64 52.654 64 51 L 64 11 C 64 9.346 62.654 8 61 8 L 59.816406 8 C 59.402406 6.839 58.302 6 57 6 L 37 6 C 35.363 6 33.920813 6.8024844 33.007812 8.0214844 C 32.095812 6.7974844 30.641 6 29 6 L 9 6 z M 9 8 L 29 8 C 30.654 8 32 9.346 32 11 L 32 45 C 32 45.552 32.447 46 33 46 C 33.553 46 34 45.552 34 45 L 34 11 C 34 9.346 35.346 8 37 8 L 57 8 C 57.552 8 58 8.449 58 9 L 58 47 C 58 47.551 57.552 48 57 48 L 37 48 C 35.359 48 33.912 48.80625 33 50.03125 C 32.088 48.80625 30.641 48 29 48 L 9 48 C 8.448 48 8 47.551 8 47 L 8 9 C 8 8.449 8.448 8 9 8 z M 5 10 L 6 10 L 6 47 C 6 48.654 7.346 50 9 50 L 29 50 C 30.654 50 32 51.346 32 53 C 32 53.552 32.447 54 33 54 C 33.553 54 34 53.552 34 53 C 34 51.346 35.346 50 37 50 L 57 50 C 58.654 50 60 48.654 60 47 L 60 10 L 61 10 C 61.552 10 62 10.449 62 11 L 62 51 C 62 51.551 61.552 52 61 52 L 39.779297 52 C 38.271297 52 36.963656 53.021375 36.597656 54.484375 C 36.374656 55.376375 35.57625 56 34.65625 56 L 31.34375 56 C 30.42375 56 29.625344 55.377375 29.402344 54.484375 C 29.036344 53.021375 27.728703 52 26.220703 52 L 5 52 C 4.448 52 4 51.551 4 51 L 4 11 C 4 10.449 4.448 10 5 10 z M 13 14 C 12.447 14 12 14.448 12 15 C 12 15.552 12.447 16 13 16 L 17 16 C 17.553 16 18 15.552 18 15 C 18 14.448 17.553 14 17 14 L 13 14 z M 23 14 C 22.447 14 22 14.448 22 15 C 22 15.552 22.447 16 23 16 L 24 16 C 24.553 16 25 15.552 25 15 C 25 14.448 24.553 14 24 14 L 23 14 z M 27 14 C 26.447 14 26 14.448 26 15 C 26 15.552 26.447 16 27 16 L 28 16 C 28.553 16 29 15.552 29 15 C 29 14.448 28.553 14 28 14 L 27 14 z M 39 14 C 38.447 14 38 14.448 38 15 C 38 15.552 38.447 16 39 16 L 43 16 C 43.553 16 44 15.552 44 15 C 44 14.448 43.553 14 43 14 L 39 14 z M 53 14 C 52.447 14 52 14.448 52 15 C 52 15.552 52.447 16 53 16 L 54 16 C 54.553 16 55 15.552 55 15 C 55 14.448 54.553 14 54 14 L 53 14 z M 13 18 C 12.447 18 12 18.448 12 19 C 12 19.552 12.447 20 13 20 L 19 20 C 19.553 20 20 19.552 20 19 C 20 18.448 19.553 18 19 18 L 13 18 z M 23 18 C 22.447 18 22 18.448 22 19 C 22 19.552 22.447 20 23 20 L 24 20 C 24.553 20 25 19.552 25 19 C 25 18.448 24.553 18 24 18 L 23 18 z M 27 18 C 26.447 18 26 18.448 26 19 C 26 19.552 26.447 20 27 20 L 28 20 C 28.553 20 29 19.552 29 19 C 29 18.448 28.553 18 28 18 L 27 18 z M 39 18 C 38.447 18 38 18.448 38 19 C 38 19.552 38.447 20 39 20 L 45 20 C 45.553 20 46 19.552 46 19 C 46 18.448 45.553 18 45 18 L 39 18 z M 49 18 C 48.447 18 48 18.448 48 19 C 48 19.552 48.447 20 49 20 L 50 20 C 50.553 20 51 19.552 51 19 C 51 18.448 50.553 18 50 18 L 49 18 z M 53 18 C 52.447 18 52 18.448 52 19 C 52 19.552 52.447 20 53 20 L 54 20 C 54.553 20 55 19.552 55 19 C 55 18.448 54.553 18 54 18 L 53 18 z M 13 24 C 12.447 24 12 24.448 12 25 C 12 25.552 12.447 26 13 26 L 17 26 C 17.553 26 18 25.552 18 25 C 18 24.448 17.553 24 17 24 L 13 24 z M 27 24 C 26.447 24 26 24.448 26 25 C 26 25.552 26.447 26 27 26 L 28 26 C 28.553 26 29 25.552 29 25 C 29 24.448 28.553 24 28 24 L 27 24 z M 39 24 C 38.447 24 38 24.448 38 25 C 38 25.552 38.447 26 39 26 L 43 26 C 43.553 26 44 25.552 44 25 C 44 24.448 43.553 24 43 24 L 39 24 z M 49 24 C 48.447 24 48 24.448 48 25 C 48 25.552 48.447 26 49 26 L 50 26 C 50.553 26 51 25.552 51 25 C 51 24.448 50.553 24 50 24 L 49 24 z M 53 24 C 52.447 24 52 24.448 52 25 C 52 25.552 52.447 26 53 26 L 54 26 C 54.553 26 55 25.552 55 25 C 55 24.448 54.553 24 54 24 L 53 24 z M 13 28 C 12.447 28 12 28.448 12 29 C 12 29.552 12.447 30 13 30 L 15 30 C 15.553 30 16 29.552 16 29 C 16 28.448 15.553 28 15 28 L 13 28 z M 23 28 C 22.447 28 22 28.448 22 29 C 22 29.552 22.447 30 23 30 L 24 30 C 24.553 30 25 29.552 25 29 C 25 28.448 24.553 28 24 28 L 23 28 z M 27 28 C 26.447 28 26 28.448 26 29 C 26 29.552 26.447 30 27 30 L 28 30 C 28.553 30 29 29.552 29 29 C 29 28.448 28.553 28 28 28 L 27 28 z M 39 28 C 38.447 28 38 28.448 38 29 C 38 29.552 38.447 30 39 30 L 41 30 C 41.553 30 42 29.552 42 29 C 42 28.448 41.553 28 41 28 L 39 28 z M 53 28 C 52.447 28 52 28.448 52 29 C 52 29.552 52.447 30 53 30 L 54 30 C 54.553 30 55 29.552 55 29 C 55 28.448 54.553 28 54 28 L 53 28 z M 13 34 C 12.447 34 12 34.448 12 35 C 12 35.552 12.447 36 13 36 L 17 36 C 17.553 36 18 35.552 18 35 C 18 34.448 17.553 34 17 34 L 13 34 z M 23 34 C 22.447 34 22 34.448 22 35 C 22 35.552 22.447 36 23 36 L 24 36 C 24.553 36 25 35.552 25 35 C 25 34.448 24.553 34 24 34 L 23 34 z M 27 34 C 26.447 34 26 34.448 26 35 C 26 35.552 26.447 36 27 36 L 28 36 C 28.553 36 29 35.552 29 35 C 29 34.448 28.553 34 28 34 L 27 34 z M 13 38 C 12.447 38 12 38.448 12 39 C 12 39.552 12.447 40 13 40 L 15 40 C 15.553 40 16 39.552 16 39 C 16 38.448 15.553 38 15 38 L 13 38 z M 27 38 C 26.447 38 26 38.448 26 39 C 26 39.552 26.447 40 27 40 L 28 40 C 28.553 40 29 39.552 29 39 C 29 38.448 28.553 38 28 38 L 27 38 z"/>
</svg>
