<?xml version="1.0"?>
<svg xmlns="http://www.w3.org/2000/svg" viewBox="0 0 80 80">
    <path style="line-height:normal;text-indent:0;text-align:start;text-decoration-line:none;text-decoration-style:solid;text-decoration-color:#000;text-transform:none;block-progression:tb;isolation:auto;mix-blend-mode:normal" d="M 53.5 10 C 48.812635 10 44.56207 10.90853 41.396484 12.443359 C 38.230899 13.978189 36 16.233532 36 19 L 36 26 L 36 32.404297 C 33.256401 31.508203 30.001045 31 26.5 31 C 21.812635 31 17.56207 31.90853 14.396484 33.443359 C 11.230899 34.978189 9 37.233532 9 40 L 9 47 L 9 54 L 9 61 C 9 63.766341 11.230937 66.021774 14.396484 67.556641 C 17.562032 69.091508 21.812478 70 26.5 70 C 31.187522 70 35.437968 69.091508 38.603516 67.556641 C 41.542688 66.131535 43.672786 64.083657 43.962891 61.583984 C 46.713298 62.486383 49.984048 63 53.5 63 C 58.187522 63 62.437968 62.091508 65.603516 60.556641 C 68.769063 59.021774 71 56.766341 71 54 L 71 47 L 71 40 L 71 33 L 71 26 L 71 19 C 71 16.233532 68.769101 13.978189 65.603516 12.443359 C 62.43793 10.90853 58.187365 10 53.5 10 z M 53.5 12 C 57.925333 12 61.924229 12.881584 64.730469 14.242188 C 67.536708 15.602787 69 17.34819 69 19 C 69 20.65181 67.536708 22.397211 64.730469 23.757812 C 61.924229 25.118415 57.925333 26 53.5 26 C 49.074667 26 45.075771 25.118415 42.269531 23.757812 C 39.463292 22.397211 38 20.65181 38 19 C 38 17.34819 39.463292 15.602787 42.269531 14.242188 C 45.075771 12.881584 49.074667 12 53.5 12 z M 48 15 A 1 1 0 0 0 47 16 A 1 1 0 0 0 48 17 A 1 1 0 0 0 49 16 A 1 1 0 0 0 48 15 z M 52 15 A 1 1 0 0 0 51 16 A 1 1 0 0 0 52 17 A 1 1 0 0 0 53 16 A 1 1 0 0 0 52 15 z M 56 15 A 1 1 0 0 0 55 16 A 1 1 0 0 0 56 17 A 1 1 0 0 0 57 16 A 1 1 0 0 0 56 15 z M 60 15 A 1 1 0 0 0 59 16 A 1 1 0 0 0 60 17 A 1 1 0 0 0 61 16 A 1 1 0 0 0 60 15 z M 46 18 A 1 1 0 0 0 45 19 A 1 1 0 0 0 46 20 A 1 1 0 0 0 47 19 A 1 1 0 0 0 46 18 z M 50 18 A 1 1 0 0 0 49 19 A 1 1 0 0 0 50 20 A 1 1 0 0 0 51 19 A 1 1 0 0 0 50 18 z M 54 18 A 1 1 0 0 0 53 19 A 1 1 0 0 0 54 20 A 1 1 0 0 0 55 19 A 1 1 0 0 0 54 18 z M 58 18 A 1 1 0 0 0 57 19 A 1 1 0 0 0 58 20 A 1 1 0 0 0 59 19 A 1 1 0 0 0 58 18 z M 62 18 A 1 1 0 0 0 61 19 A 1 1 0 0 0 62 20 A 1 1 0 0 0 63 19 A 1 1 0 0 0 62 18 z M 48 21 A 1 1 0 0 0 47 22 A 1 1 0 0 0 48 23 A 1 1 0 0 0 49 22 A 1 1 0 0 0 48 21 z M 52 21 A 1 1 0 0 0 51 22 A 1 1 0 0 0 52 23 A 1 1 0 0 0 53 22 A 1 1 0 0 0 52 21 z M 56 21 A 1 1 0 0 0 55 22 A 1 1 0 0 0 56 23 A 1 1 0 0 0 57 22 A 1 1 0 0 0 56 21 z M 60 21 A 1 1 0 0 0 59 22 A 1 1 0 0 0 60 23 A 1 1 0 0 0 61 22 A 1 1 0 0 0 60 21 z M 38 23.234375 C 38.905981 24.124208 40.059112 24.908217 41.396484 25.556641 C 44.56207 27.09147 48.812635 28 53.5 28 C 58.187365 28 62.43793 27.09147 65.603516 25.556641 C 66.940888 24.908217 68.094019 24.124208 69 23.234375 L 69 26 C 69 27.651659 67.536672 29.39718 64.730469 30.757812 C 61.924266 32.118446 57.925478 33 53.5 33 C 49.074522 33 45.075734 32.118446 42.269531 30.757812 C 39.463328 29.39718 38 27.651659 38 26 L 38 23.234375 z M 56 29 A 1 1 0 0 0 55 30 A 1 1 0 0 0 56 31 A 1 1 0 0 0 57 30 A 1 1 0 0 0 56 29 z M 60 29 A 1 1 0 0 0 59 30 A 1 1 0 0 0 60 31 A 1 1 0 0 0 61 30 A 1 1 0 0 0 60 29 z M 38 30.234375 C 38.905984 31.124222 40.059128 31.908202 41.396484 32.556641 C 44.562032 34.091508 48.812478 35 53.5 35 C 58.187522 35 62.437968 34.091508 65.603516 32.556641 C 66.940872 31.908202 68.094016 31.124222 69 30.234375 L 69 33 C 69 34.651659 67.536672 36.39718 64.730469 37.757812 C 61.924266 39.118446 57.925478 40 53.5 40 C 49.780417 40 46.370141 39.374356 43.707031 38.365234 C 43.021761 36.341634 41.118175 34.662589 38.603516 33.443359 C 38.415279 33.352093 38.211398 33.270371 38.015625 33.183594 C 38.011857 33.122298 38 33.061622 38 33 L 38 30.234375 z M 26.5 33 C 30.925333 33 34.924229 33.881585 37.730469 35.242188 C 40.536708 36.602789 42 38.34819 42 40 C 42 41.65181 40.536708 43.397211 37.730469 44.757812 C 34.924229 46.118415 30.925333 47 26.5 47 C 22.074667 47 18.075771 46.118415 15.269531 44.757812 C 12.463292 43.397211 11 41.65181 11 40 C 11 38.34819 12.463292 36.602789 15.269531 35.242188 C 18.075771 33.881585 22.074667 33 26.5 33 z M 21 36 A 1 1 0 0 0 20 37 A 1 1 0 0 0 21 38 A 1 1 0 0 0 22 37 A 1 1 0 0 0 21 36 z M 25 36 A 1 1 0 0 0 24 37 A 1 1 0 0 0 25 38 A 1 1 0 0 0 26 37 A 1 1 0 0 0 25 36 z M 29 36 A 1 1 0 0 0 28 37 A 1 1 0 0 0 29 38 A 1 1 0 0 0 30 37 A 1 1 0 0 0 29 36 z M 33 36 A 1 1 0 0 0 32 37 A 1 1 0 0 0 33 38 A 1 1 0 0 0 34 37 A 1 1 0 0 0 33 36 z M 56 36 A 1 1 0 0 0 55 37 A 1 1 0 0 0 56 38 A 1 1 0 0 0 57 37 A 1 1 0 0 0 56 36 z M 60 36 A 1 1 0 0 0 59 37 A 1 1 0 0 0 60 38 A 1 1 0 0 0 61 37 A 1 1 0 0 0 60 36 z M 69 37.234375 L 69 40 C 69 41.651659 67.536672 43.39718 64.730469 44.757812 C 61.924266 46.118446 57.925478 47 53.5 47 C 49.914375 47 46.619236 46.41784 44 45.472656 L 44 40.591797 C 46.743867 41.487262 49.998677 42 53.5 42 C 58.187522 42 62.437968 41.091508 65.603516 39.556641 C 66.940872 38.908202 68.094016 38.124222 69 37.234375 z M 19 39 A 1 1 0 0 0 18 40 A 1 1 0 0 0 19 41 A 1 1 0 0 0 20 40 A 1 1 0 0 0 19 39 z M 23 39 A 1 1 0 0 0 22 40 A 1 1 0 0 0 23 41 A 1 1 0 0 0 24 40 A 1 1 0 0 0 23 39 z M 27 39 A 1 1 0 0 0 26 40 A 1 1 0 0 0 27 41 A 1 1 0 0 0 28 40 A 1 1 0 0 0 27 39 z M 31 39 A 1 1 0 0 0 30 40 A 1 1 0 0 0 31 41 A 1 1 0 0 0 32 40 A 1 1 0 0 0 31 39 z M 35 39 A 1 1 0 0 0 34 40 A 1 1 0 0 0 35 41 A 1 1 0 0 0 36 40 A 1 1 0 0 0 35 39 z M 21 42 A 1 1 0 0 0 20 43 A 1 1 0 0 0 21 44 A 1 1 0 0 0 22 43 A 1 1 0 0 0 21 42 z M 25 42 A 1 1 0 0 0 24 43 A 1 1 0 0 0 25 44 A 1 1 0 0 0 26 43 A 1 1 0 0 0 25 42 z M 29 42 A 1 1 0 0 0 28 43 A 1 1 0 0 0 29 44 A 1 1 0 0 0 30 43 A 1 1 0 0 0 29 42 z M 33 42 A 1 1 0 0 0 32 43 A 1 1 0 0 0 33 44 A 1 1 0 0 0 34 43 A 1 1 0 0 0 33 42 z M 56 43 A 1 1 0 0 0 55 44 A 1 1 0 0 0 56 45 A 1 1 0 0 0 57 44 A 1 1 0 0 0 56 43 z M 60 43 A 1 1 0 0 0 59 44 A 1 1 0 0 0 60 45 A 1 1 0 0 0 61 44 A 1 1 0 0 0 60 43 z M 11 44.234375 C 11.905981 45.124208 13.059112 45.908217 14.396484 46.556641 C 17.56207 48.09147 21.812635 49 26.5 49 C 31.187365 49 35.43793 48.09147 38.603516 46.556641 C 39.940888 45.908217 41.094019 45.124208 42 44.234375 L 42 47 C 42 48.651659 40.536672 50.397179 37.730469 51.757812 C 34.924266 53.118446 30.925478 54 26.5 54 C 22.074522 54 18.075734 53.118446 15.269531 51.757812 C 12.463328 50.39718 11 48.651659 11 47 L 11 44.234375 z M 69 44.234375 L 69 47 C 69 48.651659 67.536672 50.397179 64.730469 51.757812 C 61.924266 53.118446 57.925478 54 53.5 54 C 49.914302 54 46.618255 53.419826 44 52.474609 L 44 47.591797 C 46.743658 48.487028 49.998343 49 53.5 49 C 58.187522 49 62.437968 48.091508 65.603516 46.556641 C 66.940872 45.908202 68.094016 45.124222 69 44.234375 z M 29 50 A 1 1 0 0 0 28 51 A 1 1 0 0 0 29 52 A 1 1 0 0 0 30 51 A 1 1 0 0 0 29 50 z M 33 50 A 1 1 0 0 0 32 51 A 1 1 0 0 0 33 52 A 1 1 0 0 0 34 51 A 1 1 0 0 0 33 50 z M 56 50 A 1 1 0 0 0 55 51 A 1 1 0 0 0 56 52 A 1 1 0 0 0 57 51 A 1 1 0 0 0 56 50 z M 60 50 A 1 1 0 0 0 59 51 A 1 1 0 0 0 60 52 A 1 1 0 0 0 61 51 A 1 1 0 0 0 60 50 z M 11 51.234375 C 11.905984 52.124222 13.059128 52.908202 14.396484 53.556641 C 17.562032 55.091508 21.812478 56 26.5 56 C 31.187522 56 35.437968 55.091508 38.603516 53.556641 C 39.940872 52.908202 41.094016 52.124222 42 51.234375 L 42 54 C 42 55.651659 40.536672 57.397179 37.730469 58.757812 C 34.924266 60.118446 30.925478 61 26.5 61 C 22.074522 61 18.075734 60.118446 15.269531 58.757812 C 12.463328 57.39718 11 55.651659 11 54 L 11 51.234375 z M 69 51.234375 L 69 54 C 69 55.651659 67.536672 57.397179 64.730469 58.757812 C 61.924266 60.118446 57.925478 61 53.5 61 C 49.91501 61 46.618118 60.42025 44 59.474609 L 44 54.59375 C 46.742862 55.488475 49.998979 56 53.5 56 C 58.187522 56 62.437968 55.091508 65.603516 53.556641 C 66.940872 52.908202 68.094016 52.124222 69 51.234375 z M 29 57 A 1 1 0 0 0 28 58 A 1 1 0 0 0 29 59 A 1 1 0 0 0 30 58 A 1 1 0 0 0 29 57 z M 33 57 A 1 1 0 0 0 32 58 A 1 1 0 0 0 33 59 A 1 1 0 0 0 34 58 A 1 1 0 0 0 33 57 z M 56 57 A 1 1 0 0 0 55 58 A 1 1 0 0 0 56 59 A 1 1 0 0 0 57 58 A 1 1 0 0 0 56 57 z M 60 57 A 1 1 0 0 0 59 58 A 1 1 0 0 0 60 59 A 1 1 0 0 0 61 58 A 1 1 0 0 0 60 57 z M 11 58.234375 C 11.905984 59.124222 13.059128 59.908202 14.396484 60.556641 C 17.562032 62.091508 21.812478 63 26.5 63 C 31.187522 63 35.437968 62.091508 38.603516 60.556641 C 39.940872 59.908202 41.094016 59.124222 42 58.234375 L 42 61 C 42 62.651659 40.536672 64.397181 37.730469 65.757812 C 34.924266 67.118448 30.925478 68 26.5 68 C 22.074522 68 18.075734 67.118448 15.269531 65.757812 C 12.463328 64.397179 11 62.651659 11 61 L 11 58.234375 z M 29 64 A 1 1 0 0 0 28 65 A 1 1 0 0 0 29 66 A 1 1 0 0 0 30 65 A 1 1 0 0 0 29 64 z M 33 64 A 1 1 0 0 0 32 65 A 1 1 0 0 0 33 66 A 1 1 0 0 0 34 65 A 1 1 0 0 0 33 64 z"/>
</svg>
