<?xml version="1.0"?>
<svg xmlns="http://www.w3.org/2000/svg" viewBox="0 0 80 80">
    <path style="line-height:normal;text-indent:0;text-align:start;text-decoration-line:none;text-decoration-style:solid;text-decoration-color:#000;text-transform:none;block-progression:tb;isolation:auto;mix-blend-mode:normal" d="M 27 7 C 24.802706 7 23 8.8027056 23 11 C 23 11.68058 23.18814 12.313926 23.492188 12.876953 L 16.158203 19.646484 C 15.533325 19.241443 14.794749 19 14 19 C 11.802706 19 10 20.802706 10 23 C 10 25.197294 11.802706 27 14 27 C 16.197294 27 18 25.197294 18 23 C 18 22.31942 17.81186 21.686074 17.507812 21.123047 L 24.839844 14.353516 C 25.46502 14.759128 26.20464 15 27 15 C 27.68463 15 28.321297 14.809377 28.886719 14.501953 L 36.640625 22.853516 C 36.239934 23.476106 36 24.209911 36 25 C 36 27.197294 37.802706 29 40 29 C 42.197294 29 44 27.197294 44 25 C 44 24.713242 43.966479 24.434249 43.908203 24.164062 L 49.003906 21.617188 C 49.738968 22.456618 50.80537 23 52 23 C 54.197294 23 56 21.197294 56 19 C 56 18.624499 55.930297 18.267301 55.832031 17.921875 L 61.164062 14.810547 C 61.890405 15.543349 62.894931 16 64 16 C 66.197294 16 68 14.197294 68 12 C 68 9.8027056 66.197294 8 64 8 C 61.802706 8 60 9.8027056 60 12 C 60 12.37485 60.070031 12.731281 60.167969 13.076172 L 54.833984 16.1875 C 54.107792 15.455839 53.104088 15 52 15 C 49.802706 15 48 16.802706 48 19 C 48 19.286758 48.033521 19.565751 48.091797 19.835938 L 42.996094 22.384766 C 42.26101 21.544681 41.195167 21 40 21 C 39.31537 21 38.678703 21.190623 38.113281 21.498047 L 30.359375 13.148438 C 30.760635 12.525547 31 11.7907 31 11 C 31 8.8027056 29.197294 7 27 7 z M 27 9 C 28.116414 9 29 9.8835859 29 11 C 29 12.116414 28.116414 13 27 13 C 25.883586 13 25 12.116414 25 11 C 25 9.8835859 25.883586 9 27 9 z M 64 10 C 65.116414 10 66 10.883586 66 12 C 66 13.116414 65.116414 14 64 14 C 62.883586 14 62 13.116414 62 12 C 62 10.883586 62.883586 10 64 10 z M 52 17 C 53.116414 17 54 17.883586 54 19 C 54 20.116414 53.116414 21 52 21 C 50.883586 21 50 20.116414 50 19 C 50 17.883586 50.883586 17 52 17 z M 14 21 C 15.116414 21 16 21.883586 16 23 C 16 24.116414 15.116414 25 14 25 C 12.883586 25 12 24.116414 12 23 C 12 21.883586 12.883586 21 14 21 z M 40 23 C 41.116414 23 42 23.883586 42 25 C 42 26.116414 41.116414 27 40 27 C 38.883586 27 38 26.116414 38 25 C 38 23.883586 38.883586 23 40 23 z M 22 26.75 L 22 71 L 19 71 L 19 34.75 L 9 34.75 L 9 35.75 L 9 71 L 5 71 L 5 73 L 75 73 L 75 71 L 71 71 L 71 28.75 L 61 28.75 L 61 71 L 58 71 L 58 37.75 L 48 37.75 L 48 71 L 45 71 L 45 43.75 L 35 43.75 L 35 71 L 32 71 L 32 26.75 L 22 26.75 z M 24 28.75 L 30 28.75 L 30 71 L 24 71 L 24 28.75 z M 63 30.75 L 69 30.75 L 69 35 A 1 1 0 0 0 68 36 A 1 1 0 0 0 69 37 L 69 41 A 1 1 0 0 0 68 42 A 1 1 0 0 0 69 43 L 69 47 A 1 1 0 0 0 68 48 A 1 1 0 0 0 69 49 L 69 53 A 1 1 0 0 0 68 54 A 1 1 0 0 0 69 55 L 69 59 A 1 1 0 0 0 68 60 A 1 1 0 0 0 69 61 L 69 65 A 1 1 0 0 0 68 66 A 1 1 0 0 0 69 67 L 69 71 L 63 71 L 63 67 A 1 1 0 0 0 64 66 A 1 1 0 0 0 63 65 L 63 61 A 1 1 0 0 0 64 60 A 1 1 0 0 0 63 59 L 63 55 A 1 1 0 0 0 64 54 A 1 1 0 0 0 63 53 L 63 49 A 1 1 0 0 0 64 48 A 1 1 0 0 0 63 47 L 63 43 A 1 1 0 0 0 64 42 A 1 1 0 0 0 63 41 L 63 37 A 1 1 0 0 0 64 36 A 1 1 0 0 0 63 35 L 63 30.75 z M 66 32 A 1 1 0 0 0 65 33 A 1 1 0 0 0 66 34 A 1 1 0 0 0 67 33 A 1 1 0 0 0 66 32 z M 11 36.75 L 17 36.75 L 17 41 A 1 1 0 0 0 16 42 A 1 1 0 0 0 17 43 L 17 47 A 1 1 0 0 0 16 48 A 1 1 0 0 0 17 49 L 17 53 A 1 1 0 0 0 16 54 A 1 1 0 0 0 17 55 L 17 59 A 1 1 0 0 0 16 60 A 1 1 0 0 0 17 61 L 17 65 A 1 1 0 0 0 16 66 A 1 1 0 0 0 17 67 L 17 71 L 11 71 L 11 67 A 1 1 0 0 0 12 66 A 1 1 0 0 0 11 65 L 11 61 A 1 1 0 0 0 12 60 A 1 1 0 0 0 11 59 L 11 55 A 1 1 0 0 0 12 54 A 1 1 0 0 0 11 53 L 11 49 A 1 1 0 0 0 12 48 A 1 1 0 0 0 11 47 L 11 43 A 1 1 0 0 0 12 42 A 1 1 0 0 0 11 41 L 11 36.75 z M 14 38 A 1 1 0 0 0 13 39 A 1 1 0 0 0 14 40 A 1 1 0 0 0 15 39 A 1 1 0 0 0 14 38 z M 66 38 A 1 1 0 0 0 65 39 A 1 1 0 0 0 66 40 A 1 1 0 0 0 67 39 A 1 1 0 0 0 66 38 z M 50 39.75 L 56 39.75 L 56 71 L 50 71 L 50 39.75 z M 14 44 A 1 1 0 0 0 13 45 A 1 1 0 0 0 14 46 A 1 1 0 0 0 15 45 A 1 1 0 0 0 14 44 z M 66 44 A 1 1 0 0 0 65 45 A 1 1 0 0 0 66 46 A 1 1 0 0 0 67 45 A 1 1 0 0 0 66 44 z M 37 45.75 L 43 45.75 L 43 47 A 1 1 0 0 0 42 48 A 1 1 0 0 0 43 49 L 43 53 A 1 1 0 0 0 42 54 A 1 1 0 0 0 43 55 L 43 59 A 1 1 0 0 0 42 60 A 1 1 0 0 0 43 61 L 43 65 A 1 1 0 0 0 42 66 A 1 1 0 0 0 43 67 L 43 71 L 37 71 L 37 67 A 1 1 0 0 0 38 66 A 1 1 0 0 0 37 65 L 37 61 A 1 1 0 0 0 38 60 A 1 1 0 0 0 37 59 L 37 55 A 1 1 0 0 0 38 54 A 1 1 0 0 0 37 53 L 37 49 A 1 1 0 0 0 38 48 A 1 1 0 0 0 37 47 L 37 45.75 z M 14 50 A 1 1 0 0 0 13 51 A 1 1 0 0 0 14 52 A 1 1 0 0 0 15 51 A 1 1 0 0 0 14 50 z M 40 50 A 1 1 0 0 0 39 51 A 1 1 0 0 0 40 52 A 1 1 0 0 0 41 51 A 1 1 0 0 0 40 50 z M 66 50 A 1 1 0 0 0 65 51 A 1 1 0 0 0 66 52 A 1 1 0 0 0 67 51 A 1 1 0 0 0 66 50 z M 14 56 A 1 1 0 0 0 13 57 A 1 1 0 0 0 14 58 A 1 1 0 0 0 15 57 A 1 1 0 0 0 14 56 z M 40 56 A 1 1 0 0 0 39 57 A 1 1 0 0 0 40 58 A 1 1 0 0 0 41 57 A 1 1 0 0 0 40 56 z M 66 56 A 1 1 0 0 0 65 57 A 1 1 0 0 0 66 58 A 1 1 0 0 0 67 57 A 1 1 0 0 0 66 56 z M 14 62 A 1 1 0 0 0 13 63 A 1 1 0 0 0 14 64 A 1 1 0 0 0 15 63 A 1 1 0 0 0 14 62 z M 40 62 A 1 1 0 0 0 39 63 A 1 1 0 0 0 40 64 A 1 1 0 0 0 41 63 A 1 1 0 0 0 40 62 z M 66 62 A 1 1 0 0 0 65 63 A 1 1 0 0 0 66 64 A 1 1 0 0 0 67 63 A 1 1 0 0 0 66 62 z M 14 68 A 1 1 0 0 0 13 69 A 1 1 0 0 0 14 70 A 1 1 0 0 0 15 69 A 1 1 0 0 0 14 68 z M 40 68 A 1 1 0 0 0 39 69 A 1 1 0 0 0 40 70 A 1 1 0 0 0 41 69 A 1 1 0 0 0 40 68 z M 66 68 A 1 1 0 0 0 65 69 A 1 1 0 0 0 66 70 A 1 1 0 0 0 67 69 A 1 1 0 0 0 66 68 z"/>
</svg>
